<?xml version="1.0" encoding="utf-8"?>
<!-- Generator: Adobe Illustrator 19.2.1, SVG Export Plug-In . SVG Version: 6.00 Build 0)  -->
<svg version="1.0" id="Ebene_1" xmlns="http://www.w3.org/2000/svg" xmlns:xlink="http://www.w3.org/1999/xlink" x="0px" y="0px"
	 viewBox="0 0 209.8 147.4" enable-background="new 0 0 209.8 147.4" xml:space="preserve">
<g>
	<g>
		<polygon fill="#FFFFFF" stroke="#FFFFFF" stroke-width="3.000000e-02" points="740,200 740,220 760,220 760,200 760,180 740,180 
					"/>
		<polygon fill="#FFFFFF" stroke="#FFFFFF" stroke-width="3.000000e-02" points="860,200 860,220 880,220 880,200 880,180 860,180 
					"/>
		<polygon fill="#FFFFFF" stroke="#FFFFFF" stroke-width="3.000000e-02" points="780,220 800,220 800,200 800,180 780,180 780,200 
					"/>
		<polygon fill="#FFFFFF" stroke="#FFFFFF" stroke-width="3.000000e-02" points="900,220 920,220 920,200 920,180 900,180 900,200 
					"/>
		<polygon fill="#FFFFFF" stroke="#FFFFFF" stroke-width="3.000000e-02" points="820,220 800,220 800,240 800,260 820,260 820,240 
					"/>
		<polygon fill="#FFFFFF" stroke="#FFFFFF" stroke-width="3.000000e-02" points="940,220 920,220 920,240 920,260 940,260 940,240 
					"/>
		<polygon fill="#FFFFFF" stroke="#FFFFFF" stroke-width="3.000000e-02" points="680,260 700,260 700,240 700,220 680,220 680,240 
					"/>
		<polygon fill="#FFFFFF" stroke="#FFFFFF" stroke-width="3.000000e-02" points="740,240 740,220 720,220 720,240 720,260 740,260 
					"/>
		<polygon fill="#FFFFFF" stroke="#FFFFFF" stroke-width="3.000000e-02" points="860,240 860,220 840,220 840,240 840,260 860,260 
					"/>
		<rect x="940" y="360" fill="#FFFFFF" stroke="#FFFFFF" stroke-width="3.000000e-02" width="20" height="20"/>
		<rect x="920" y="380" fill="#FFFFFF" stroke="#FFFFFF" stroke-width="3.000000e-02" width="20" height="20"/>
		<rect x="900" y="400" fill="#FFFFFF" stroke="#FFFFFF" stroke-width="3.000000e-02" width="20" height="20"/>
		<rect x="880" y="420" fill="#FFFFFF" stroke="#FFFFFF" stroke-width="3.000000e-02" width="20" height="20"/>
		<path fill="#FFFFFF" stroke="#FFFFFF" stroke-width="3.000000e-02" d="M1080,1300h-20h-20h-20h-20v-20v-20v-20v-20v-20v-20v-20
			v-20v-20v-20v-20v-20v-20v-20v-20v-20v-20v-20v-20v-20v-20v-20v-20v-20v-20v-20v-20v-20v-20v-20v-20v-20v-20v-20v-20v-20v-20h20
			h20h20v-20h-20h-20h-20v-20v-20h20h20h20v20v20h20v-20v-20v-20v-20v-20v-20v-20v-20v-20v-20v-20v-20h-20v20v20h-20h-20h-20v-20
			v-20h20h20h20v-20h-20h-20h-20v-20v-20v-20v-20h20h20v-20v-20h-20v-20h-20v-20h-20h-20h-20h-20h-20v-20h-20h-20V80V60V40V20V0h-20
			v20v20v20v20h-20v20h-20h-20h-20h-20v20h-20h-20h-20h-20v-20V80V60h-20v20v20v20v20h-20v20h-20v20v20h20h20v20v20v20v20h-20h-20
			h-20h-20h-20h-20h-20v20v20v20v20v20h20v-20h20h20h20h20h20h20v20h-20h-20h-20h-20h-20h-20v20h20h20h20h20h20h20v20v20v20v20h-20
			h-20h-20h-20v20v20v20h20v-20v-20h20h20h20v20v20h-20h-20h-20v20h20h20h20v20v20v20v20v20v20v20v20v20v20v20v20v20v20v20v20v20v20
			v20v20v20v20v20v20v20v20v20v20v20v20v20v20v20v20v20v20v20h-20h-20h-20h-20v20h20v20v20h20v-20v-20h20h20v20v20h-20h-20v20h20h20
			v20v20v20v20v20v20v20v20v20v20v20v20v20h-20h-20v20v20v20v20v20v20v20v20h20h20h20h20h20h20h20h20h20h20h20h20h20h20h20h20h20h20
			h20h20h20h20v-20v-20v-20v-20v-20v-20v-20v-20h-20h-20v-20v-20v-20v-20v-20v-20v-20v-20v-20v-20v-20h20v-20v-20h20h20v-20h-20h-20
			h-20v-20v-20h20h20h20v20v20h20v-20v-20h20v-20H1080z M680,940v-20v-20v-20v-20v-20v-20v-20v-20v-20v-20v-20v-20v-20v-20v-20v-20
			v-20v-20v-20h20h20h20h20h20h20h20h20h20h20h20h20h20h20v20v20v20v20v20v20v20v20v20v20v20v20v20v20v20v20v20v20v20v20h-20h-20
			h-20h-20h-20h-20h-20h-20h-20h-20h-20h-20h-20h-20V940z M1020,360h20v20h20v20v20v20v20v20h-20h-20h-20v-20v-20v-20v-20v-20v-20
			H1020z M980,320h-20h-20h-20h-20h-20h-20h-20h-20h-20h-20h-20h-20h-20h-20h-20h-20v-20h20h20h20h20h20h20h20h20h20h20h20h20h20h20
			h20h20V320z M660,260v-20v-20h20v-20v-20h-20v-20h20h20h20h20h20v20h20v-20h20h20h20h20h20v20h20v-20h20h20h20h20v20v20v20h-20v20
			v20h20v20h-20v-20h-20v20h-20h-20h-20h-20h-20v-20h-20v20h-20h-20h-20h-20h-20v-20h-20v20h-20h-20V260z M560,340h-20h-20v-20v-20
			h20h20h20v20v20H560z M620,340h-20v-20v-20h20h20v20v20H620z M660,340h20h20h20h20h20h20h20h20h20h20h20h20h20h20h20h20v20v20h-20
			v20h-20v20h-20v20h-20v20h-20v-20h-20v20h-20v-20h20v-20h20v-20h20v-20h20v-20h-20h-20h-20h-20h-20h-20h-20h-20h-20h-20h-20h-20
			h-20V340z M660,480v-20v-20v-20v-20v-20h20v20v20v20v20v20h20h20h20h20h20h20h20h20h20h20h20h20h20h20h20v20h-20h-20v20v20h-20
			v-20v-20h-20h-20h-20h-20v20v20h-20v-20v-20h-20h-20h-20h-20v20v20h-20v-20v-20h-20h-20h-20V480z M800,1400h20h20h20h20h20h20h20
			h20v20h-20v20v20h-20v20h20h20v20v20v20v20h-20h-20v20v20h20v-20h20v20v20v20h-20h-20v-20v-20h-20v20h-20v20h-20h-20v-20v-20v-20
			v-20h-20v20v20h-20v20v20h-20h-20h-20h-20h-20h-20v-20v-20v-20v-20v-20v-20v-20v-20v-20v-20v-20v-20h20h20h20h20h20H800z
			 M640,1740h20h20v20h-20h-20V1740z M640,1700h20h20v20h-20h-20V1700z M660,1660h20v20h-20h-20v-20H660z M960,1340h20v20h-20h-20
			v20h-20v-20v-20v-20h-20v20v20v20h-20v-20h-20h-20h-20h-20h-20h-20v20h-20v-20v-20v-20h-20v20v20v20h-20v-20h-20h-20v-20h20h20
			v-20h-20h-20v-20h20h20h20h20h20h20h20h20h20h20h20h20h20h20h20h20v20h-20h-20v20H960z"/>
		<polygon fill="#FFFFFF" stroke="#FFFFFF" stroke-width="3.000000e-02" points="840,1320 820,1320 800,1320 780,1320 760,1320 
			760,1340 780,1340 800,1340 820,1340 840,1340 860,1340 880,1340 880,1320 860,1320 		"/>
		<polygon fill="#FFFFFF" stroke="#FFFFFF" stroke-width="3.000000e-02" points="900,1500 880,1500 880,1520 900,1520 920,1520 
			920,1500 920,1480 900,1480 		"/>
		<polygon fill="#FFFFFF" stroke="#FFFFFF" stroke-width="3.000000e-02" points="880,1560 880,1540 880,1520 860,1520 860,1540 
			840,1540 840,1560 860,1560 		"/>
	</g>
	<polygon fill="#FFFFFF" stroke="#FFFFFF" stroke-width="3.000000e-02" points="940,1860 920,1860 900,1860 880,1860 860,1860 
		840,1860 820,1860 800,1860 780,1860 760,1860 740,1860 720,1860 700,1860 680,1860 660,1860 660,1880 660,1900 680,1900 680,1920 
		680,1940 680,1960 680,1980 680,2000 680,2020 680,2040 700,2040 700,2060 700,2080 700,2100 700,2120 720,2120 720,2140 720,2160 
		740,2160 740,2180 740,2200 740,2220 760,2220 760,2240 760,2260 760,2280 760,2300 780,2300 780,2320 780,2340 780,2360 800,2360 
		800,2380 800,2400 820,2400 820,2380 820,2360 820,2340 840,2340 840,2320 840,2300 840,2280 860,2280 860,2260 860,2240 860,2220 
		860,2200 880,2200 880,2180 900,2180 900,2160 900,2140 900,2120 920,2120 920,2100 920,2080 940,2080 940,2060 940,2040 960,2040 
		960,2020 960,2000 960,1980 960,1960 960,1940 960,1920 960,1900 960,1880 960,1860 	"/>
	<g>
		<polygon fill="#FFFFFF" stroke="#FFFFFF" stroke-width="3.000000e-02" points="1100,1960 1100,1940 1080,1940 1080,1920 
			1080,1900 1080,1880 1060,1880 1060,1860 1040,1860 1040,1880 1040,1900 1040,1920 1040,1940 1040,1960 1040,1980 1040,2000 
			1040,2020 1040,2040 1040,2060 1020,2060 1020,2040 1020,2020 1000,2020 1000,2040 1000,2060 1000,2080 980,2080 980,2100 
			980,2120 980,2140 960,2140 960,2160 960,2180 960,2200 980,2200 980,2220 980,2240 1000,2240 1000,2220 1020,2220 1020,2200 
			1020,2180 1020,2160 1020,2140 1020,2120 1020,2100 1020,2080 1040,2080 1040,2100 1060,2100 1060,2080 1060,2060 1060,2040 
			1060,2020 1060,2000 1080,2000 1080,2020 1080,2040 1080,2060 1080,2080 1080,2100 1080,2120 1080,2140 1080,2160 1060,2160 
			1040,2160 1040,2180 1040,2200 1060,2200 1060,2220 1060,2240 1060,2260 1080,2260 1080,2240 1080,2220 1080,2200 1100,2200 
			1100,2180 1100,2160 1120,2160 1120,2140 1120,2120 1120,2100 1120,2080 1120,2060 1120,2040 1120,2020 1120,2000 1120,1980 
			1120,1960 		"/>
		<polygon fill="#FFFFFF" stroke="#FFFFFF" stroke-width="3.000000e-02" points="1040,2240 1020,2240 1020,2260 1000,2260 
			1000,2280 1000,2300 1000,2320 1000,2340 1000,2360 1000,2380 1000,2400 980,2400 960,2400 960,2420 960,2440 960,2460 960,2480 
			940,2480 920,2480 920,2500 920,2520 920,2540 920,2560 920,2580 920,2600 900,2600 880,2600 880,2620 880,2640 880,2660 
			880,2680 860,2680 840,2680 840,2700 840,2720 820,2720 800,2720 780,2720 760,2720 760,2700 760,2680 760,2660 760,2640 
			740,2640 720,2640 720,2620 720,2600 720,2580 720,2560 700,2560 680,2560 680,2540 680,2520 680,2500 660,2500 660,2480 
			640,2480 640,2460 640,2440 640,2420 640,2400 640,2380 620,2380 620,2360 600,2360 600,2340 600,2320 600,2300 600,2280 
			600,2260 580,2260 580,2240 560,2240 560,2220 560,2200 560,2180 560,2160 560,2140 560,2120 560,2100 560,2080 560,2060 
			560,2040 540,2040 540,2020 540,2000 560,2000 560,2020 560,2040 580,2040 600,2040 600,2060 600,2080 600,2100 600,2120 
			600,2140 600,2160 620,2160 620,2180 640,2180 640,2200 640,2220 640,2240 640,2260 640,2280 640,2300 640,2320 660,2320 
			660,2340 680,2340 680,2360 680,2380 680,2400 680,2420 680,2440 700,2440 700,2460 720,2460 720,2480 720,2500 720,2520 
			720,2540 720,2560 740,2560 760,2560 760,2540 760,2520 760,2500 760,2480 760,2460 740,2460 740,2440 720,2440 720,2420 
			720,2400 720,2380 720,2360 700,2360 700,2340 700,2320 680,2320 680,2300 680,2280 680,2260 680,2240 680,2220 680,2200 
			680,2180 660,2180 660,2160 640,2160 640,2140 640,2120 640,2100 640,2080 640,2060 620,2060 620,2040 620,2020 600,2020 
			600,2000 600,1980 600,1960 600,1940 600,1920 600,1900 600,1880 600,1860 600,1840 580,1840 580,1860 560,1860 560,1880 
			560,1900 540,1900 540,1920 540,1940 520,1940 520,1960 520,1980 520,2000 520,2020 520,2040 520,2060 520,2080 520,2100 
			520,2120 520,2140 520,2160 520,2180 520,2200 520,2220 540,2220 540,2240 540,2260 540,2280 560,2280 560,2300 560,2320 
			560,2340 560,2360 580,2360 580,2380 580,2400 600,2400 600,2420 600,2440 600,2460 620,2460 620,2480 620,2500 640,2500 
			640,2520 640,2540 640,2560 660,2560 660,2580 680,2580 680,2600 680,2620 680,2640 700,2640 700,2660 720,2660 720,2680 
			720,2700 720,2720 740,2720 740,2740 740,2760 740,2780 760,2780 760,2800 760,2820 760,2840 780,2840 780,2860 780,2880 
			780,2900 800,2900 800,2880 820,2880 820,2860 820,2840 840,2840 840,2820 840,2800 840,2780 860,2780 860,2760 860,2740 
			860,2720 880,2720 880,2700 900,2700 900,2680 920,2680 920,2660 920,2640 920,2620 940,2620 940,2600 960,2600 960,2580 
			960,2560 960,2540 960,2520 980,2520 980,2500 980,2480 1000,2480 1000,2460 1000,2440 1020,2440 1020,2420 1020,2400 1020,2380 
			1040,2380 1040,2360 1040,2340 1040,2320 1040,2300 1040,2280 1060,2280 1060,2260 1040,2260 		"/>
		<polygon fill="#FFFFFF" stroke="#FFFFFF" stroke-width="3.000000e-02" points="760,2600 780,2600 780,2620 780,2640 780,2660 
			800,2660 820,2660 820,2640 840,2640 840,2620 840,2600 840,2580 860,2580 860,2560 880,2560 880,2540 880,2520 880,2500 
			900,2500 900,2480 920,2480 920,2460 920,2440 920,2420 920,2400 920,2380 920,2360 940,2360 940,2340 940,2320 960,2320 
			960,2300 960,2280 960,2260 960,2240 960,2220 960,2200 940,2200 940,2220 940,2240 920,2240 920,2260 920,2280 920,2300 
			920,2320 900,2320 900,2340 900,2360 880,2360 880,2380 880,2400 880,2420 880,2440 880,2460 880,2480 860,2480 860,2500 
			860,2520 840,2520 840,2540 840,2560 820,2560 820,2580 800,2580 780,2580 780,2560 760,2560 760,2580 		"/>
	</g>
</g>
</svg>
