<?xml version="1.0" encoding="utf-8"?>
<!-- Generator: Adobe Illustrator 19.2.1, SVG Export Plug-In . SVG Version: 6.00 Build 0)  -->
<svg version="1.1" id="Ebene_1" xmlns="http://www.w3.org/2000/svg" xmlns:xlink="http://www.w3.org/1999/xlink" x="0px" y="0px"
	 viewBox="0 0 595.3 841.9" style="enable-background:new 0 0 595.3 841.9;" xml:space="preserve">
<style type="text/css">
	.st0{fill:#FFFFFF;stroke:#EBEBEA;stroke-width:3.000000e-02;}
	.st1{display:none;}
	.st2{display:inline;fill:#FFFFFF;fill-opacity:0.25;}
</style>
<g>
	<polygon class="st0" points="5167.3,1365.8 5144.2,1365.8 5150,1375.8 	"/>
	<polygon class="st0" points="3423.7,1385.8 3435.2,1405.8 3435.2,1385.8 	"/>
	<polygon class="st0" points="3435.2,1385.8 3435.2,1405.8 3446.8,1385.8 	"/>
	<polygon class="st0" points="3747,1425.8 3770.1,1425.8 3764.3,1415.8 3758.5,1405.8 	"/>
	<polygon class="st0" points="3943.3,1405.8 3937.5,1395.8 3931.8,1385.8 3920.2,1405.8 3931.8,1425.8 3937.5,1415.8 	"/>
	<polygon class="st0" points="4180,1415.8 4185.8,1425.8 4197.3,1405.8 4174.2,1405.8 	"/>
	<polygon class="st0" points="5190.4,1405.8 5184.6,1415.8 5178.8,1425.8 5201.9,1425.8 	"/>
	<polygon class="st0" points="3729.7,1435.8 3723.9,1425.8 3712.4,1445.8 3735.5,1445.8 	"/>
	<polygon class="st0" points="4803.5,1455.8 4797.8,1445.8 4786.2,1465.8 4809.3,1465.8 	"/>
	<polygon class="st0" points="456.1,1465.8 444.6,1465.8 456.1,1485.8 467.7,1465.8 	"/>
	<polygon class="st0" points="1645.4,1465.8 1651.2,1475.8 1657,1485.8 1668.5,1465.8 	"/>
	<polygon class="st0" points="2615.4,1465.8 2621.2,1475.8 2626.9,1485.8 2638.5,1465.8 	"/>
	<polygon class="st0" points="4110.7,1475.8 4105,1485.8 4110.7,1495.8 4128,1485.8 	"/>
	<polygon class="st0" points="409.9,1485.8 421.5,1485.8 433,1485.8 421.5,1465.8 	"/>
	<polygon class="st0" points="1749.4,1485.8 1737.8,1465.8 1726.3,1485.8 1737.8,1485.8 	"/>
	<polygon class="st0" points="2303.6,1485.8 2292.1,1465.8 2280.5,1485.8 2292.1,1485.8 	"/>
	<polygon class="st0" points="4728.5,1485.8 4716.9,1465.8 4705.4,1485.8 4716.9,1485.8 	"/>
	<polygon class="st0" points="583.1,1505.8 594.7,1505.8 606.2,1505.8 594.7,1485.8 571.6,1485.8 577.3,1495.8 	"/>
	<polygon class="st0" points="2274.8,1495.8 2280.5,1485.8 2257.4,1485.8 2269,1505.8 	"/>
	<polygon class="st0" points="4797.8,1485.8 4786.2,1505.8 4809.3,1505.8 4803.5,1495.8 	"/>
	<polygon class="st0" points="2863.7,1515.8 2869.4,1505.8 2846.3,1505.8 2857.9,1525.8 	"/>
	<polygon class="st0" points="3002.2,1515.8 2996.4,1525.8 3019.5,1525.8 3008,1505.8 	"/>
	<polygon class="st0" points="3071.5,1515.8 3088.8,1525.8 3088.8,1525.8 3088.8,1525.8 3088.8,1525.8 3088.8,1525.8 3088.8,1505.8 
		3088.8,1485.8 3088.8,1485.8 3088.8,1485.8 3088.8,1485.8 3088.8,1485.8 3071.5,1495.8 3088.8,1485.8 3065.7,1485.8 3054.2,1505.8 
		3077.3,1505.8 	"/>
	<polygon class="st0" points="4820.9,1505.8 4809.3,1505.8 4820.9,1525.8 4832.4,1505.8 	"/>
	<polygon class="st0" points="2222.8,1525.8 2211.2,1525.8 2205.5,1535.8 2199.7,1545.8 2222.8,1545.8 2234.3,1525.8 	"/>
	<polygon class="st0" points="2690.4,1535.8 2696.2,1525.8 2690.4,1515.8 2684.7,1505.8 2673.1,1525.8 2684.7,1545.8 	"/>
	<polygon class="st0" points="1091.2,1545.8 1079.6,1525.8 1068.1,1545.8 1079.6,1545.8 	"/>
	<polygon class="st0" points="5767.7,1565.8 5756.2,1545.8 5744.6,1565.8 5756.2,1565.8 	"/>
	<polygon class="st0" points="756.3,1565.8 750.6,1575.8 744.8,1585.8 767.9,1585.8 	"/>
	<polygon class="st0" points="2003.4,1565.8 1997.6,1575.8 1991.9,1585.8 2014.9,1585.8 	"/>
	<polygon class="st0" points="2967.6,1575.8 2973.4,1565.8 2950.3,1565.8 2961.8,1585.8 	"/>
	<polygon class="st0" points="5421.3,1565.8 5427.1,1575.8 5432.9,1585.8 5444.4,1565.8 	"/>
	<polygon class="st0" points="5513.7,1565.8 5502.1,1585.8 5513.7,1585.8 	"/>
	<polygon class="st0" points="5513.7,1565.8 5513.7,1585.8 5525.2,1585.8 	"/>
	<polygon class="st0" points="1241.3,1605.8 1252.8,1585.8 1229.8,1585.8 1235.5,1595.8 	"/>
	<polygon class="st0" points="5981.3,1595.8 5987.1,1585.8 5964,1585.8 5975.6,1605.8 	"/>
	<polygon class="st0" points="6010.2,1585.8 5998.7,1585.8 5987.1,1585.8 5998.7,1605.8 	"/>
	<polygon class="st0" points="2165.1,1605.8 2153.5,1585.8 2142,1605.8 2153.5,1605.8 	"/>
	<polygon class="st0" points="1264.4,1605.8 1252.8,1605.8 1241.3,1605.8 1252.8,1625.8 	"/>
	<polygon class="st0" points="4509.1,1605.8 4497.6,1605.8 4509.1,1625.8 4520.6,1605.8 	"/>
	<polygon class="st0" points="5883.2,1605.8 5860.1,1605.8 5877.4,1615.8 	"/>
	<polygon class="st0" points="1403,1645.8 1408.7,1635.8 1414.5,1625.8 1391.4,1625.8 	"/>
	<polygon class="st0" points="6125.7,1625.8 6119.9,1635.8 6114.1,1645.8 6119.9,1655.8 6125.7,1665.8 6137.2,1645.8 	"/>
	<polygon class="st0" points="6298.9,1725.8 6293.1,1715.8 6287.3,1705.8 6275.8,1725.8 	"/>
	<path class="st0" d="M6431.7,1835.8l-5.8-10l-11.5-20l-11.5-20l-5.8,10l-5.8,10l-11.6-20h-23.1l-11.5,20l-11.6-20h-23.1l-11.6-20
		h-23.1l11.5-20h-11.5h-11.5l-5.8-10l-5.8-10l5.8-10l5.8-10l-5.8-10l-5.8-10h-11.5h-11.5h-23.1h0h-23.1l5.8,10l5.8,10h-23.1l11.6-20
		l-11.6-20l-11.5,20l-5.8-10l-5.8-10l-11.5,20h-23.1l5.8-10l5.8-10h-23.1l-11.5-20l-5.8,10l-5.8,10l-11.6,20l-11.5-20l-5.8,10
		l-5.8,10l-11.5-20l11.5-20h-11.5h-11.6h-23.1l11.5-20h-11.5h-11.6l11.6-20h-23.1h0l0,0l-11.5,20l11.5,20l0,0l0,0l-11.5,20l11.5,20
		l0,0l0,0l-11.5,20l11.5,20l0,0l0,0l-11.5,20l11.5,20l0,0l0,0l-11.5,20l11.5,20l0,0l0,0l-11.5,20l11.5,20l0,0l0,0l-11.5,20l11.5,20
		l0,0l0,0l-11.5,20l11.5,20l0,0l0,0l-11.5,20h23.1h11.6h11.5h23.1h23.1h11.5h11.6h23.1h23.1h11.5h11.5h23.1h23.1h11.5v-20l0,0l0,0
		v20h11.5h23.1h23.1h11.5h11.5h23.1h23.1h11.6h11.5h23.1h23.1h11.5h11.5l-11.5-20h23.1l-5.8-10l-5.8-10l5.8-10l5.8-10l-5.8-10
		l-5.8-10l-11.5-20h23.1L6431.7,1835.8z M6085.3,1895.8l5.8-10h0L6085.3,1895.8z M6206.5,1765.8L6206.5,1765.8L6206.5,1765.8l0-20
		v-20l0,0l0,0v20V1765.8z M6206.5,1925.8L6206.5,1925.8L6206.5,1925.8l0-20v-20l0,0l0,0v20V1925.8z M6206.5,1805.8L6206.5,1805.8
		L6206.5,1805.8l0-20v-20l0,0l0,0v20V1805.8z M6085.3,1855.8l5.8-10h0L6085.3,1855.8z M6206.5,1885.8L6206.5,1885.8L6206.5,1885.8
		l0-20v-20l0,0l0,0v20V1885.8z M6085.3,1815.8l5.8-10h0L6085.3,1815.8z M6206.5,1845.8L6206.5,1845.8L6206.5,1845.8l0-20v-20l0,0
		l0,0v20V1845.8z M6085.3,1775.8l5.8-10h0L6085.3,1775.8z M6085.3,1735.8l5.8-10h0L6085.3,1735.8z M6206.5,1705.8v-20l0,0l0,0
		L6206.5,1705.8l0,20l0,0l0,0V1705.8z M6091,1685.8L6091,1685.8l-5.8,10L6091,1685.8z M6085.3,1935.8l5.8-10h0L6085.3,1935.8z"/>
	<path class="st0" d="M2742.4,1885.8v-20v-20v-20v-20v-20v-20v-20v-20v-20v-20v-20v-20v-20v-20v-20v-20l-11.5,20h-23.1l-11.5-20
		l-5.8-10l-5.8-10h-11.6h-11.5l11.5-20H2650l5.8-10l5.8-10h-23.1l-11.5,20l-5.8-10l-5.8-10h23.1l11.6-20h-11.6h-11.5h0h-23.1
		l-11.6,20h-23.1l-11.6-20h-23.1l-11.6-20l-5.8,10l-5.8,10l-11.5-20l-11.6,20l-5.8-10l-5.8-10l-11.5-20h-23.1l5.8,10l5.8,10h-23.1
		h-23.1H2396h-11.5h-23.1l-11.5,20h-23.1l11.6,20h-11.6h-11.5h-23.1l-11.5,20l-5.8,10l-5.8,10l-11.5-20l-11.6,20h-23.1l-11.6,20
		l11.6,20h-23.1l5.8,10l5.8,10h-23.1l-11.5,20h-23.1h-23.1l5.8,10l5.8,10h-23.1l11.5,20h-11.5h-11.6h-23.1h-23.1h-11.5H2038l-5.8-10
		l-5.8-10l-11.6-20l-11.5-20l-5.8-10l-5.8-10h-11.6h-11.5l11.5-20h-23.1l5.8-10l5.8-10h-23.1h-23.1l-11.6,20l-11.5-20l-5.8,10
		l-5.8,10l-11.5-20l-11.6-20l-5.8,10l-5.8,10l-11.5-20l11.5-20l-11.5-20l-11.6,20l-5.8-10l-5.8-10h-11.5h-11.6l-5.8-10l-5.8-10
		l-11.5,20h-23.1l-11.5,20l-11.6-20l-5.8-10l-5.8-10l-11.5,20l11.5,20h-11.5h-11.5l-5.8-10l-5.8-10h-11.6H1657h-23.1l-11.5,20
		l11.5,20h-23.1l5.8,10l5.8,10h-23.1l11.5,20h-11.5h-11.5l-5.8,10l-5.8,10h-11.5h-11.6H1530h-23.1l5.8,10l5.8,10l-5.8,10l-5.8,10
		h-11.6h-11.6l11.6,20h-23.1h-11.6h-11.5l-5.8,10l-5.8,10l5.8,10l5.8,10h-23.1l11.5-20h-11.5h-11.5h-23.1h-23.1l-11.5-20h-23.1
		l5.8,10l5.8,10h-23.1H1299l-11.5-20l-11.5,20l-5.8-10l-5.8-10h-11.6h-11.5l-5.8-10l-5.8-10l-11.6-20l-11.6-20l-5.8-10l-5.8-10
		l5.8-10l5.8-10h-23.1l-11.5,20l-5.8,10l-5.8,10h-11.6h-11.6l11.6-20h-23.1h-11.6h-11.5h-23.1l-11.5-20H1045l-11.5-20h-23.1
		l-11.6,20l-5.8,10l-5.8,10l-11.5-20l11.5-20h-11.5h-11.5h-23.1H918l-11.6-20l-11.5-20l-5.8,10l-5.8,10l-11.6,20h-23.1l5.8,10
		l5.8,10h-23.1l-11.5,20h-23.1l-11.5,20h-23.1l11.5,20h-11.5h-11.5l-5.8-10l-5.8-10h-11.5h-11.6h-23.1h-23.1l5.8-10l5.8-10h-23.1
		l0,0v20h0v-20l-11.5-20l-5.8,10l-5.8,10h-11.6h-11.5l-5.8-10l-5.8-10l-11.6-20h-23.1l-11.6-20l-11.5,20l11.5,20l-11.5,20l11.5,20
		l-11.5,20l11.5,20l-11.5,20l11.5,20l-11.5,20l11.5,20l-11.5,20l11.5,20l-11.5,20l11.5,20l-11.5,20l11.5,20l-11.5,20l11.5,20
		l-11.5,20l11.5,20l-11.5,20l11.5,20h23.1h11.5h11.6h23.1h23.1h11.5v-20l17.3-10l-17.3,10h0l0,0v20h11.5h23.1h23.1h11.6h11.5h23.1
		H791h11.5h11.6h23.1h23.1h11.6h11.6h23.1h23.1h11.5h11.5h23.1h23.1h11.6h11.5h23.1h23.1h11.5h11.5h23.1h23.1h11.6h11.6h23.1h23.1
		h11.6h11.6h23.1h23.1h11.5h11.5h23.1h23.1h11.5h11.5h23.1h23.1h11.5h11.5h23.1h23.1h11.6h11.6h23.1h23.1h11.6h11.5h23.1h23.1h11.5
		h11.5h23.1h23.1h11.5h11.5h23.1h23.1h11.6h11.5h23.1h23.1h11.6h11.5h23.1h23.1h11.5h11.6h23.1h23.1h11.5h11.6h23.1h23.1h11.6h11.5
		h23.1h23.1h11.6h11.5h23.1h23.1h11.5h11.6h23.1h23.1h11.6h11.5h23.1h23.1h11.5h11.6h23.1h23.1h11.5h11.5h23.1h23.1h11.6h11.5h23.1
		h23.1h11.6h11.6h23.1h23.1h11.6h11.6h23.1h23.1h11.5h11.6h23.1h23.1h11.5v-20v-20V1885.8z M681.3,1715.8l-17.3,10h0l0,0v20h0v-20
		L681.3,1715.8z M663.9,1765.8l17.3-10L663.9,1765.8L663.9,1765.8L663.9,1765.8l0,20h0V1765.8z M681.3,1675.8l-17.3,10h0l0,0v20h0
		v-20L681.3,1675.8z M663.9,1805.8l17.3-10L663.9,1805.8L663.9,1805.8L663.9,1805.8l0,20h0V1805.8z M681.3,1635.8l-17.3,10h0l0,0v20
		h0v-20L681.3,1635.8z M663.9,1845.8l17.3-10L663.9,1845.8L663.9,1845.8L663.9,1845.8l0,20h0V1845.8z M681.3,1595.8l-17.3,10h0l0,0
		v20h0v-20L681.3,1595.8z M663.9,1885.8l17.3-10L663.9,1885.8L663.9,1885.8L663.9,1885.8l0,20h0V1885.8z"/>
	<path class="st0" d="M3088.8,1905.8v-20l0,0l0,0v0l0,0l-17.3,10l17.3-10l-17.3-10l17.3,10l0,0v0l0,0l0,0v-20v-20l0,0l0,0v0l0,0
		l-17.3,10l17.3-10l-17.3-10l17.3,10l0,0v0l0,0l0,0v-20v-20l0,0l0,0v0l0,0l-17.3,10l17.3-10l-17.3-10l17.3,10l0,0v0l0,0l0,0v-20v-20
		l0,0l0,0v0l0,0l-17.3,10l17.3-10l-17.3-10l17.3,10l0,0v0l0,0l0,0v-20v-20l0,0l0,0v0l0,0l-17.3,10l17.3-10l-17.3-10l17.3,10l0,0v0
		l0,0l0,0v-20v-20l0,0l0,0v0l0,0l-17.3,10l17.3-10l-17.3-10l17.3,10l0,0v0l0,0l0,0v-20v-20l0,0l0,0v0l0,0l-17.3,10l17.3-10l-17.3-10
		l17.3,10l0,0v0l0,0l0,0v-20v-20l0,0l0,0v0l0,0l-17.3,10l17.3-10l-17.3-10l17.3,10l0,0v0l0,0l0,0v-20v-20l0,0l0,0v0l0,0l-17.3,10
		l17.3-10l-17.3-10l17.3,10l0,0v0l0,0l0,0v-20v-20l0,0l0,0v0l0,0l-17.3,10l17.3-10l-17.3-10l-5.8,10l-11.5-20l-11.5,20h-23.1
		l-11.5,20l-5.8,10l-5.8,10l-11.6,20l-11.5,20l-5.8,10l-5.8,10l-11.6-20l-11.5,20h-23.1l-11.6-20l11.6-20h-23.1l-11.6,20l-11.5-20
		l-5.8-10l-5.8-10l0,0l-11.6-20h-23.1l-11.5,20h-23.1h-11.5h-11.6l-5.8,10l-5.8,10l-11.5-20v20v20l0,0l0,0v0l0,0l17.3-10l-17.3,10
		l17.3,10l-17.3-10l0,0v0l0,0l0,0v20v20l0,0l0,0v0l0,0l17.3-10l-17.3,10l17.3,10l-17.3-10l0,0v0l0,0l0,0v20v20l0,0l0,0v0l0,0
		l17.3-10l-17.3,10l17.3,10l-17.3-10l0,0v0l0,0l0,0v20v20l0,0l0,0v0l0,0l17.3-10l-17.3,10l17.3,10l-17.3-10l0,0v0l0,0l0,0v20v20l0,0
		l0,0v0l0,0l17.3-10l-17.3,10l17.3,10l-17.3-10l0,0v0l0,0l0,0v20v20l0,0l0,0v0l0,0l17.3-10l-17.3,10l17.3,10l-17.3-10l0,0v0l0,0l0,0
		v20v20l0,0l0,0v0l0,0l17.3-10l-17.3,10l17.3,10l-17.3-10l0,0v0l0,0l0,0v20v20l0,0l0,0v0l0,0l17.3-10l-17.3,10l17.3,10l-17.3-10l0,0
		v0l0,0l0,0v20v20l0,0l0,0v0l0,0l17.3-10l-17.3,10l17.3,10l-17.3-10l0,0v0l0,0l0,0v20h11.5h23.1h23.1h11.6h11.5h23.1h23.1h11.5h11.6
		h23.1h23.1h11.5h11.6h23.1h23.1h11.5h11.6h23.1h23.1h11.5v-20l0,0l0,0v0l0,0l-17.3,10l17.3-10l-17.3-10l17.3,10l0,0v0l0,0l0,0
		V1905.8z M2857.9,1805.8L2857.9,1805.8l5.8-10L2857.9,1805.8l5.8,10L2857.9,1805.8L2857.9,1805.8z M2857.9,1765.8L2857.9,1765.8
		l5.8-10L2857.9,1765.8l5.8,10L2857.9,1765.8L2857.9,1765.8z M2857.9,1725.8L2857.9,1725.8l5.8-10L2857.9,1725.8l5.8,10
		L2857.9,1725.8L2857.9,1725.8z M2857.9,1845.8L2857.9,1845.8l5.8-10L2857.9,1845.8l5.8,10L2857.9,1845.8L2857.9,1845.8z
		 M2857.9,1685.8l5.8,10L2857.9,1685.8L2857.9,1685.8L2857.9,1685.8l5.8-10L2857.9,1685.8z M2857.9,1885.8L2857.9,1885.8l5.8-10
		L2857.9,1885.8l5.8,10L2857.9,1885.8L2857.9,1885.8z M2857.9,1645.8l5.8,10L2857.9,1645.8L2857.9,1645.8L2857.9,1645.8l5.8-10
		L2857.9,1645.8z M2857.9,1605.8l5.8,10L2857.9,1605.8L2857.9,1605.8L2857.9,1605.8l5.8-10L2857.9,1605.8z M2857.9,1925.8
		L2857.9,1925.8L2857.9,1925.8l5.8-10L2857.9,1925.8l5.8,10L2857.9,1925.8z"/>
	<polygon class="st0" points="3435.2,1905.8 3435.2,1885.8 3435.2,1885.8 3435.2,1885.8 3435.2,1865.8 3435.2,1845.8 3435.2,1845.8 
		3435.2,1845.8 3435.2,1825.8 3435.2,1805.8 3435.2,1805.8 3435.2,1805.8 3435.2,1785.8 3435.2,1765.8 3435.2,1765.8 3435.2,1765.8 
		3435.2,1745.8 3435.2,1725.8 3435.2,1725.8 3435.2,1725.8 3435.2,1705.8 3435.2,1685.8 3435.2,1685.8 3435.2,1685.8 3435.2,1665.8 
		3435.2,1645.8 3435.2,1645.8 3435.2,1645.8 3435.2,1625.8 3435.2,1605.8 3435.2,1605.8 3435.2,1605.8 3435.2,1585.8 3435.2,1565.8 
		3435.2,1565.8 3435.2,1565.8 3435.2,1545.8 3435.2,1525.8 3435.2,1525.8 3435.2,1525.8 3435.2,1505.8 3435.2,1485.8 3435.2,1485.8 
		3435.2,1485.8 3435.2,1465.8 3435.2,1445.8 3435.2,1445.8 3435.2,1445.8 3435.2,1425.8 3435.2,1405.8 3423.7,1425.8 3400.6,1425.8 
		3389,1445.8 3383.3,1435.8 3377.5,1425.8 3365.9,1445.8 3342.9,1445.8 3348.6,1455.8 3354.4,1465.8 3331.3,1465.8 3319.8,1485.8 
		3296.7,1485.8 3273.6,1485.8 3262,1465.8 3250.5,1445.8 3244.7,1435.8 3238.9,1425.8 3227.4,1425.8 3215.8,1425.8 3192.7,1425.8 
		3204.3,1405.8 3192.7,1405.8 3181.2,1405.8 3175.4,1415.8 3169.6,1425.8 3158.1,1445.8 3135,1445.8 3123.5,1465.8 3111.9,1445.8 
		3106.1,1455.8 3100.4,1465.8 3088.8,1485.8 3088.8,1505.8 3088.8,1525.8 3088.8,1545.8 3088.8,1565.8 3088.8,1585.8 3088.8,1605.8 
		3088.8,1625.8 3088.8,1645.8 3088.8,1665.8 3088.8,1685.8 3088.8,1705.8 3088.8,1725.8 3088.8,1745.8 3088.8,1765.8 3088.8,1785.8 
		3088.8,1805.8 3088.8,1825.8 3088.8,1845.8 3088.8,1865.8 3088.8,1885.8 3088.8,1905.8 3088.8,1925.8 3088.8,1945.8 3100.4,1945.8 
		3123.5,1945.8 3146.6,1945.8 3158.1,1945.8 3169.6,1945.8 3192.7,1945.8 3215.8,1945.8 3227.4,1945.8 3238.9,1945.8 3262,1945.8 
		3285.1,1945.8 3296.7,1945.8 3308.2,1945.8 3331.3,1945.8 3354.4,1945.8 3365.9,1945.8 3377.5,1945.8 3400.6,1945.8 3423.7,1945.8 
		3435.2,1945.8 3435.2,1925.8 3435.2,1925.8 3435.2,1925.8 	"/>
	<polygon class="st0" points="3781.6,1905.8 3781.6,1885.8 3781.6,1885.8 3781.6,1885.8 3781.6,1885.8 3781.6,1885.8 3764.3,1895.8 
		3781.6,1885.8 3764.3,1875.8 3781.6,1885.8 3781.6,1885.8 3781.6,1885.8 3781.6,1885.8 3781.6,1885.8 3781.6,1865.8 3781.6,1845.8 
		3781.6,1845.8 3781.6,1845.8 3781.6,1845.8 3781.6,1845.8 3764.3,1855.8 3781.6,1845.8 3764.3,1835.8 3781.6,1845.8 3781.6,1845.8 
		3781.6,1845.8 3781.6,1845.8 3781.6,1845.8 3781.6,1825.8 3781.6,1805.8 3781.6,1805.8 3781.6,1805.8 3781.6,1805.8 3781.6,1805.8 
		3764.3,1815.8 3781.6,1805.8 3764.3,1795.8 3781.6,1805.8 3781.6,1805.8 3781.6,1805.8 3781.6,1805.8 3781.6,1805.8 3781.6,1785.8 
		3781.6,1765.8 3781.6,1765.8 3781.6,1765.8 3781.6,1765.8 3781.6,1765.8 3764.3,1775.8 3781.6,1765.8 3764.3,1755.8 3781.6,1765.8 
		3781.6,1765.8 3781.6,1765.8 3781.6,1765.8 3781.6,1765.8 3781.6,1745.8 3781.6,1725.8 3781.6,1725.8 3781.6,1725.8 3781.6,1725.8 
		3781.6,1725.8 3764.3,1735.8 3781.6,1725.8 3764.3,1715.8 3781.6,1725.8 3781.6,1725.8 3781.6,1725.8 3781.6,1725.8 3781.6,1725.8 
		3781.6,1705.8 3781.6,1685.8 3781.6,1685.8 3781.6,1685.8 3781.6,1685.8 3781.6,1685.8 3764.3,1695.8 3781.6,1685.8 3764.3,1675.8 
		3781.6,1685.8 3781.6,1685.8 3781.6,1685.8 3781.6,1685.8 3781.6,1685.8 3781.6,1665.8 3781.6,1645.8 3781.6,1645.8 3781.6,1645.8 
		3781.6,1645.8 3781.6,1645.8 3764.3,1655.8 3781.6,1645.8 3764.3,1635.8 3781.6,1645.8 3781.6,1645.8 3781.6,1645.8 3781.6,1645.8 
		3781.6,1645.8 3781.6,1625.8 3781.6,1605.8 3781.6,1605.8 3781.6,1605.8 3781.6,1605.8 3781.6,1605.8 3764.3,1615.8 3781.6,1605.8 
		3764.3,1595.8 3781.6,1605.8 3781.6,1605.8 3781.6,1605.8 3781.6,1605.8 3781.6,1605.8 3781.6,1585.8 3781.6,1565.8 3781.6,1565.8 
		3781.6,1565.8 3781.6,1565.8 3781.6,1565.8 3764.3,1575.8 3781.6,1565.8 3764.3,1555.8 3781.6,1565.8 3781.6,1565.8 3781.6,1565.8 
		3781.6,1565.8 3781.6,1565.8 3781.6,1545.8 3781.6,1525.8 3781.6,1525.8 3781.6,1525.8 3781.6,1525.8 3781.6,1525.8 3764.3,1535.8 
		3781.6,1525.8 3764.3,1515.8 3781.6,1525.8 3781.6,1525.8 3781.6,1525.8 3781.6,1525.8 3781.6,1525.8 3781.6,1505.8 3781.6,1485.8 
		3770.1,1505.8 3764.3,1495.8 3758.5,1485.8 3781.6,1485.8 3764.3,1475.8 3781.6,1485.8 3781.6,1485.8 3781.6,1485.8 3781.6,1485.8 
		3781.6,1485.8 3781.6,1465.8 3781.6,1445.8 3770.1,1465.8 3764.3,1455.8 3758.5,1445.8 3747,1465.8 3735.5,1485.8 3729.7,1475.8 
		3723.9,1465.8 3712.4,1465.8 3700.8,1465.8 3712.4,1485.8 3689.3,1485.8 3695,1475.8 3700.8,1465.8 3677.7,1465.8 3689.3,1445.8 
		3677.7,1445.8 3666.2,1445.8 3677.7,1425.8 3666.2,1405.8 3660.4,1395.8 3654.6,1385.8 3643.1,1385.8 3631.5,1385.8 3625.8,1395.8 
		3620,1405.8 3608.4,1385.8 3585.3,1385.8 3573.8,1385.8 3562.2,1385.8 3556.5,1375.8 3550.7,1365.8 3550.7,1365.8 3539.2,1365.8 
		3527.6,1365.8 3521.8,1375.8 3516.1,1385.8 3504.5,1385.8 3493,1385.8 3469.9,1385.8 3458.3,1405.8 3435.2,1405.8 3435.2,1425.8 
		3435.2,1445.8 3435.2,1465.8 3435.2,1485.8 3435.2,1505.8 3435.2,1525.8 3435.2,1545.8 3435.2,1565.8 3435.2,1585.8 3435.2,1605.8 
		3435.2,1625.8 3435.2,1645.8 3435.2,1665.8 3435.2,1685.8 3435.2,1705.8 3435.2,1725.8 3435.2,1745.8 3435.2,1765.8 3435.2,1785.8 
		3435.2,1805.8 3435.2,1825.8 3435.2,1845.8 3435.2,1865.8 3435.2,1885.8 3435.2,1905.8 3435.2,1925.8 3435.2,1945.8 3446.8,1945.8 
		3469.9,1945.8 3493,1945.8 3504.5,1945.8 3516.1,1945.8 3539.2,1945.8 3562.2,1945.8 3573.8,1945.8 3585.3,1945.8 3608.4,1945.8 
		3631.5,1945.8 3643.1,1945.8 3654.6,1945.8 3677.7,1945.8 3700.8,1945.8 3712.4,1945.8 3723.9,1945.8 3747,1945.8 3770.1,1945.8 
		3781.6,1945.8 3781.6,1925.8 3781.6,1925.8 3781.6,1925.8 3781.6,1925.8 3781.6,1925.8 3764.3,1935.8 3781.6,1925.8 3764.3,1915.8 
		3781.6,1925.8 3781.6,1925.8 3781.6,1925.8 3781.6,1925.8 3781.6,1925.8 	"/>
	<path class="st0" d="M5167.3,1905.8v-20l0,0l0,0v0l0,0l-17.3,10l17.3-10l-17.3-10l17.3,10l0,0v0l0,0l0,0v-20v-20l0,0l0,0v0l0,0
		l-17.3,10l17.3-10l-17.3-10l17.3,10l0,0v0l0,0l0,0v-20v-20l0,0l0,0v0l0,0l-17.3,10l17.3-10l-17.3-10l17.3,10l0,0v0l0,0l0,0v-20v-20
		l0,0l0,0v0l0,0l-17.3,10l17.3-10l-17.3-10l17.3,10l0,0v0l0,0l0,0v-20v-20l0,0l0,0v0l0,0l-17.3,10l17.3-10l-17.3-10l17.3,10l0,0v0
		l0,0l0,0v-20v-20l0,0l0,0v0l0,0l-17.3,10l17.3-10l-17.3-10l17.3,10l0,0v0l0,0l0,0v-20v-20l0,0l0,0v0l0,0l-17.3,10l17.3-10l-17.3-10
		l17.3,10l0,0v0l0,0l0,0v-20v-20l0,0l0,0v0l0,0l-17.3,10l17.3-10l-17.3-10l17.3,10l0,0v0l0,0l0,0v-20v-20l0,0l0,0v0l0,0l-17.3,10
		l17.3-10l-17.3-10l17.3,10l0,0v0l0,0l0,0v-20v-20l0,0l0,0v0l0,0l-17.3,10l17.3-10l-17.3-10l17.3,10l0,0v0l0,0l0,0v-20v-20l0,0l0,0
		v0l0,0l-17.3,10l17.3-10l-17.3-10l17.3,10l0,0v0l0,0l0,0v-20v-20l0,0l0,0v0l0,0l-17.3,10l17.3-10l-17.3-10l17.3,10l0,0v0l0,0l0,0
		v-20h-11.5h-23.1l11.6,20h-11.6h-11.5H5098l-11.5,20l-5.8,10l-5.8,10l-11.5-20h-23.1l-11.6,20l-11.5-20l-5.8,10l-5.8,10l5.8,10
		l5.8,10h-23.1H4971l-11.5,20h-23.1l5.8,10l5.8,10h-23.1l-11.5,20l-5.8-10l-5.8-10h-11.5h-11.5l-5.8-10l-5.8-10h-11.5H4844l-5.8,10
		l-5.8,10l-11.5-20h-23.1l-11.5,20h-23.1l-11.5-20l-11.5-20h-23.1l-11.5,20h-23.1l-11.6,20l-5.8,10l-5.8,10h-11.5h-11.6l-5.8,10
		l-5.8,10H4613h-11.5l11.5,20h-23.1l-11.6,20h-23.1l-11.5-20h-23.1l5.8,10l5.8,10h-23.1H4486l-11.5-20h-23.1h-11.5h-11.5l-5.8,10
		l-5.8,10h-11.6h-11.5l-5.8,10l-5.8,10l-11.5-20h-23.1h-11.5h-11.6l-5.8-10l-5.8-10l5.8-10l5.8-10h-23.1h-23.1h-11.6h-11.5l11.5-20
		h-23.1l5.8-10l5.8-10l-5.8-10l-5.8-10l-11.6-20l-11.5-20l-5.8-10l-5.8-10h-11.5h-11.6h-23.1l-11.5-20l-5.8,10l-5.8,10h-11.5h-11.5
		l-5.8,10l17.3,10l-17.3,10l5.8,10h-23.1l11.6,20h-11.6h-11.5l11.5-20l-11.5-20l-5.8,10l-5.8,10l-11.6-20h-23.1l5.8-10l5.8-10
		l-5.8-10l-5.8-10l-11.6-20H4001l-11.6,20l-11.5-20l-5.8,10l-5.8,10l-11.6-20h-23.1h-11.5h-11.6l-5.8,10l-5.8,10l-11.5-20l-11.6-20
		h-23.1h-23.1l5.8,10l5.8,10h-23.1l-11.6,20h-23.1v20v20v20v20v20v20v20v20v20v20v20v20v20v20v20v20v20v20v20v20v20v20v20v20v20
		h11.5h23.1h23.1h11.6h11.5h23.1h23.1h11.6h11.5h23.1h23.1h11.5h11.6h23.1h23.1h11.5h11.6h23.1h23.1h11.5h11.5h23.1h23.1h11.6h11.5
		h23.1h23.1h11.5h11.6h23.1h23.1h11.6h11.5h23.1h23.1h11.5h11.6h23.1h23.1h11.5h11.5h23.1h23.1h11.6h11.5h23.1h23.1h11.5h11.6h23.1
		h23.1h11.6h11.5h23.1h23.1h11.5h11.5h23.1h23.1h11.5h11.5h23.1h23.1h11.5h11.5h23.1h23.1h11.6h11.5h23.1h23.1h11.5h11.6h23.1h23.1
		h11.5h11.5h23.1h23.1h11.5v-20l0,0l0,0v0l0,0l-17.3,10l17.3-10l-17.3-10l17.3,10l0,0v0l0,0l0,0V1905.8z M4012.6,1485.8
		L4012.6,1485.8l-5.8,10L4012.6,1485.8l-5.8-10L4012.6,1485.8L4012.6,1485.8z M4936.3,1765.8L4936.3,1765.8l5.8-10L4936.3,1765.8
		l5.8,10L4936.3,1765.8L4936.3,1765.8z M4936.3,1725.8l5.8,10L4936.3,1725.8L4936.3,1725.8L4936.3,1725.8l5.8-10L4936.3,1725.8z
		 M4128,1725.8l-17.3-10L4128,1725.8l-17.3,10L4128,1725.8z M4012.6,1725.8l-5.8-10L4012.6,1725.8L4012.6,1725.8L4012.6,1725.8
		l-5.8,10L4012.6,1725.8z M4012.6,1685.8L4012.6,1685.8l-5.8,10L4012.6,1685.8l-5.8-10L4012.6,1685.8L4012.6,1685.8z M4012.6,1765.8
		l-5.8-10L4012.6,1765.8L4012.6,1765.8L4012.6,1765.8l-5.8,10L4012.6,1765.8z M4128,1765.8l-17.3-10L4128,1765.8l-17.3,10
		L4128,1765.8z M4110.7,1695.8l17.3-10l-17.3-10l17.3,10L4110.7,1695.8z M4012.6,1645.8L4012.6,1645.8l-5.8,10L4012.6,1645.8
		l-5.8-10L4012.6,1645.8L4012.6,1645.8z M4012.6,1805.8l-5.8-10L4012.6,1805.8L4012.6,1805.8L4012.6,1805.8l-5.8,10L4012.6,1805.8z
		 M4128,1805.8l-17.3-10L4128,1805.8l-17.3,10L4128,1805.8z M4936.3,1805.8L4936.3,1805.8l5.8-10L4936.3,1805.8l5.8,10
		L4936.3,1805.8L4936.3,1805.8z M4936.3,1685.8l5.8,10L4936.3,1685.8L4936.3,1685.8L4936.3,1685.8l5.8-10L4936.3,1685.8z
		 M4110.7,1655.8l17.3-10l-17.3-10l17.3,10L4110.7,1655.8z M4012.6,1605.8L4012.6,1605.8l-5.8,10L4012.6,1605.8l-5.8-10
		L4012.6,1605.8L4012.6,1605.8z M4012.6,1845.8l-5.8-10L4012.6,1845.8L4012.6,1845.8L4012.6,1845.8l-5.8,10L4012.6,1845.8z
		 M4128,1845.8l-17.3-10L4128,1845.8l-17.3,10L4128,1845.8z M4936.3,1845.8L4936.3,1845.8l5.8-10L4936.3,1845.8l5.8,10
		L4936.3,1845.8L4936.3,1845.8z M4936.3,1645.8l5.8,10L4936.3,1645.8L4936.3,1645.8L4936.3,1645.8l5.8-10L4936.3,1645.8z
		 M4110.7,1615.8l17.3-10l-17.3-10l17.3,10L4110.7,1615.8z M4012.6,1565.8L4012.6,1565.8l-5.8,10L4012.6,1565.8l-5.8-10
		L4012.6,1565.8L4012.6,1565.8z M4012.6,1885.8l-5.8-10L4012.6,1885.8L4012.6,1885.8L4012.6,1885.8l-5.8,10L4012.6,1885.8z
		 M4128,1885.8l-17.3-10L4128,1885.8l-17.3,10L4128,1885.8z M4936.3,1885.8L4936.3,1885.8l5.8-10L4936.3,1885.8l5.8,10
		L4936.3,1885.8L4936.3,1885.8z M4936.3,1605.8l5.8,10L4936.3,1605.8L4936.3,1605.8L4936.3,1605.8l5.8-10L4936.3,1605.8z
		 M4128.1,1565.8l-17.3,10L4128.1,1565.8l-17.3-10L4128.1,1565.8z M4012.6,1525.8L4012.6,1525.8l-5.8,10L4012.6,1525.8l-5.8-10
		L4012.6,1525.8L4012.6,1525.8z M4942.1,1555.8l-5.8,10l5.8,10l-5.8-10l0,0l0,0L4942.1,1555.8z M4128,1525.8l-17.3-10L4128,1525.8
		l-17.3,10L4128,1525.8z M4012.6,1445.8l-5.8-10L4012.6,1445.8L4012.6,1445.8L4012.6,1445.8l-5.8,10L4012.6,1445.8z M4006.8,1935.8
		l5.8-10l-5.8-10l5.8,10l0,0l0,0L4006.8,1935.8z M4110.7,1935.8l17.3-10l-17.3-10l17.3,10L4110.7,1935.8z M4936.3,1925.8
		L4936.3,1925.8L4936.3,1925.8l5.8-10L4936.3,1925.8l5.8,10L4936.3,1925.8z"/>
	<path class="st0" d="M5964,1905.8l11.5-20l-11.5-20l11.5-20l-11.5-20l11.5-20l-11.5-20l11.5-20l-11.5-20l11.5-20l-11.5-20l11.5-20
		l-11.5-20l11.5-20l-11.5-20l11.5-20l-11.5-20l-11.5,20h-23.1l-11.5-20l-5.8,10l-5.8,10h-11.5h-11.6l11.6,20h-23.1l5.8-10l-17.3-10
		l0,0H5837l-11.5,20h-23.1l-11.5,20l-11.5-20h-23.1l11.6-20l-11.6-20l-11.5-20h-23.1l-11.6-20l-5.8,10l-5.8,10l-11.5-20l-11.6,20
		l-5.8,10l-5.8,10l-11.6-20h-23.1h-11.5h-11.5H5583h-23.1h-11.5h-11.5l11.5,20l-11.5,20h-23.1h0h-23.1l5.8,10l5.8,10l-5.8,10
		l-5.8,10l5.8,10l5.8,10l-5.8,10l-5.8,10l5.8,10l5.8,10l-5.8,10l-5.8,10l5.8,10l5.8,10l-5.8,10l-5.8,10l5.8,10l5.8,10l-5.8,10
		l-5.8,10l5.8,10l5.8,10l-5.8,10l-5.8,10l5.8,10l5.8,10l-5.8,10l-5.8,10l5.8,10l5.8,10l-5.8,10l-5.8,10l5.8,10l5.8,10h11.5v-20l0,0
		l0,0v20h11.5h23.1h23.1h11.6h11.5h23.1h23.1h11.5h11.6h23.1h23.1h11.6h11.5h23.1h23.1h11.5h11.5h23.1h23.1h11.5h11.5h23.1h23.1
		h11.5h11.5h23.1l11.5-20L5964,1905.8z M5860.1,1725.8l17.3,10L5860.1,1725.8L5860.1,1725.8L5860.1,1725.8l17.3-10L5860.1,1725.8z
		 M5860.1,1765.8l17.3,10L5860.1,1765.8L5860.1,1765.8L5860.1,1765.8l17.3-10L5860.1,1765.8z M5860.1,1805.8l17.3,10L5860.1,1805.8
		L5860.1,1805.8L5860.1,1805.8l17.3-10L5860.1,1805.8z M5860.1,1845.8L5860.1,1845.8l17.3-10L5860.1,1845.8l17.3,10L5860.1,1845.8
		L5860.1,1845.8z M5860.1,1685.8l17.3,10L5860.1,1685.8L5860.1,1685.8L5860.1,1685.8l17.3-10L5860.1,1685.8z M5860.1,1885.8
		L5860.1,1885.8l17.3-10L5860.1,1885.8l17.3,10L5860.1,1885.8L5860.1,1885.8z M5877.4,1635.8l-17.3,10l17.3,10l-17.3-10l0,0l0,0
		L5877.4,1635.8z M5513.7,1625.8v-20l0,0l0,0L5513.7,1625.8l0,20l0,0l0,0V1625.8z M5513.7,1665.8v-20l0,0l0,0L5513.7,1665.8l0,20
		l0,0l0,0V1665.8z M5513.7,1705.8v-20l0,0l0,0L5513.7,1705.8l0,20l0,0l0,0V1705.8z M5513.7,1745.8v-20l0,0l0,0L5513.7,1745.8l0,20
		l0,0l0,0V1745.8z M5513.7,1785.8v-20l0,0l0,0L5513.7,1785.8l0,20l0,0l0,0V1785.8z M5513.7,1825.8v-20l0,0l0,0L5513.7,1825.8l0,20
		l0,0l0,0V1825.8z M5513.7,1865.8v-20l0,0l0,0L5513.7,1865.8l0,20l0,0l0,0V1865.8z M5513.7,1905.8v-20l0,0l0,0L5513.7,1905.8l0,20
		l0,0l0,0V1905.8z M5860.1,1925.8L5860.1,1925.8L5860.1,1925.8l17.3-10L5860.1,1925.8l17.3,10L5860.1,1925.8z"/>
	<path class="st0" d="M548.5,1925.8L548.5,1925.8l11.5-20l-11.5-20l0,0l0,0l11.5-20l-11.5-20l0,0l0,0l11.5-20l-11.5-20l0,0l0,0
		l11.5-20l-11.5-20l0,0l0,0l11.5-20l-11.5-20l0,0l0,0l11.5-20l-11.5-20l0,0l0,0l11.5-20l-11.5-20l0,0l0,0l11.5-20l-11.5-20l0,0l0,0
		l11.5-20l-11.5-20l0,0l0,0l11.5-20l-11.5-20l0,0l0,0l11.5-20h-23.1l5.8-10l5.8-10h-23.1l-11.5,20h-23.1l-11.6-20l-5.8,10l-5.8,10
		l-11.5-20H433l-11.5,20h-23.1l-11.5-20h-23.1h-11.5h-11.6l-5.8-10l-5.8-10l-11.5,20l0,0l0,0l-11.5-20h-23.1h-23.1l-11.6,20
		l-11.5,20l11.5,20l-11.5,20h11.5h11.6l5.8,10l5.8,10l-5.8,10l-5.8,10l5.8,10l5.8,10l-5.8,10l-5.8,10h-11.6h-11.5l11.5,20l-11.5,20
		l11.5,20l-11.5,20l11.5,20l-11.5,20l11.5,20l-11.5,20l-5.8,10l-5.8,10l-11.5,20l-11.5,20l-5.8,10l-5.8,10l5.8,10l5.8,10l11.5,20
		l11.5,20l5.8,10l5.8,10h11.5h11.6h23.1H306h11.5v-20l0,0v20h11.5h23.1h23.1h11.5h11.5h23.1h23.1h11.5h11.5h23.1h23.1h11.5h11.6H560
		L548.5,1925.8L548.5,1925.8z M317.5,1905.8L317.5,1905.8l0-20l0,0V1905.8z M317.5,1525.8L317.5,1525.8l0,20h0V1525.8z
		 M317.5,1865.8L317.5,1865.8l0-20l0,0V1865.8z M317.5,1645.8L317.5,1645.8l0,20h0V1645.8z M317.5,1565.8L317.5,1565.8L317.5,1565.8
		l11.5-20L317.5,1565.8z M317.5,1805.8L317.5,1805.8l0,20h0V1805.8z M317.5,1685.8L317.5,1685.8L317.5,1685.8l11.5-20L317.5,1685.8z
		 M317.5,1725.8L317.5,1725.8L317.5,1725.8l11.5-20L317.5,1725.8z M317.5,1765.8L317.5,1765.8L317.5,1765.8l11.5-20L317.5,1765.8z
		 M317.5,1805.8L317.5,1805.8L317.5,1805.8l11.5-20L317.5,1805.8z M317.5,1845.8l11.5-20L317.5,1845.8L317.5,1845.8L317.5,1845.8z
		 M317.5,1605.8L317.5,1605.8L317.5,1605.8l11.5-20L317.5,1605.8z M317.5,1645.8L317.5,1645.8L317.5,1645.8l11.5-20L317.5,1645.8z
		 M317.5,1685.8L317.5,1685.8l0,20h0V1685.8z M317.5,1725.8L317.5,1725.8l0,20h0V1725.8z M317.5,1765.8L317.5,1765.8l0,20h0V1765.8z
		 M317.5,1565.8L317.5,1565.8l0,20h0V1565.8z M317.5,1605.8L317.5,1605.8l0,20h0V1605.8z M317.5,1885.8l11.5-20L317.5,1885.8
		L317.5,1885.8L317.5,1885.8z M317.5,1525.8L317.5,1525.8L317.5,1525.8l11.5-20L317.5,1525.8z M317.5,1505.8L317.5,1505.8l0-20l0,0
		V1505.8z M317.5,1925.8L317.5,1925.8l11.5-20L317.5,1925.8L317.5,1925.8z"/>
	<path class="st0" d="M5490.6,1925.8l5.8-10l5.8-10l-5.8-10l-5.8-10l5.8-10l5.8-10l-5.8-10l-5.8-10l5.8-10l5.8-10l-5.8-10l-5.8-10
		l5.8-10l5.8-10l-5.8-10l-5.8-10l5.8-10l5.8-10l-5.8-10l-5.8-10l5.8-10l5.8-10l-5.8-10l-5.8-10l5.8-10l5.8-10l-5.8-10l-5.8-10
		l5.8-10l5.8-10l-5.8-10l-5.8-10l5.8-10l5.8-10H5479l-11.5,20h-23.1l-11.5-20l-5.8,10l-5.8,10h-11.5h-11.5l-5.8,10l5.8-10h0l-5.8-10
		l-5.8-10h-11.5h-11.5l11.5,20H5352l5.8-10l5.8-10l-5.8-10l-5.8-10l-11.6,20l-11.5,20l-5.8-10l-5.8-10l-11.6-20l11.6-20l-11.6-20
		l-11.5-20l-5.8,10l-5.8,10l-11.5-20l11.5-20h-11.5h-11.6l-5.8-10l-5.8-10l-11.5-20l-11.5-20h-23.1l-11.5,20l-5.8-10l-5.8-10h-11.5
		v20v20v20v20v20v20v20v20v20v20v20v20v20v20v20v20v20v20v20v20v20v20v20v20v20v20h11.5h23.1h23.1h11.5h11.5h23.1h23.1h11.5h11.6
		h23.1h23.1h11.5h11.5h23.1h23.1h11.5h11.6h23.1h23.1l-5.8-10L5490.6,1925.8z M5392.4,1895.8l5.8-10h0L5392.4,1895.8z
		 M5392.4,1855.8l5.8-10h0L5392.4,1855.8z M5392.4,1735.8l5.8-10h0L5392.4,1735.8z M5392.4,1775.8l5.8-10h0L5392.4,1775.8z
		 M5392.4,1815.8l5.8-10h0L5392.4,1815.8z M5392.4,1695.8l5.8-10h0L5392.4,1695.8z M5392.4,1655.8l5.8-10h0L5392.4,1655.8z
		 M5294.3,1545.8l-5.8,10l-5.8,10l-11.5-20H5294.3z M5392.4,1935.8l5.8-10h0L5392.4,1935.8z"/>
</g>
<g class="st1">
	<path class="st2" d="M2598.1,740v-20v-20v-20v-20v-20v-20v-20v-20v-20v-20v-20v-20v-20v-20v-20v-20l-11.5,20h-23.1l-11.5-20
		l-5.8-10l-5.8-10h-11.6h-11.5l11.5-20h-23.1l5.8-10l5.8-10h-23.1l-11.5,20l-5.8-10l-5.8-10h23.1l11.6-20h-11.6h-11.5h0h-23.1
		l-11.6,20h-23.1l-11.6-20h-23.1l-11.6-20l-5.8,10l-5.8,10l-11.5-20l-11.6,20l-5.8-10l-5.8-10l-11.5-20h-23.1l5.8,10l5.8,10h-23.1
		h-23.1h-11.5h-11.5H2217l-11.5,20h-23.1l11.6,20h-11.6h-11.5h-23.1l-11.5,20l-5.8,10l-5.8,10l-11.5-20l-11.6,20h-23.1l-11.6,20
		l11.6,20h-23.1l5.8,10l5.8,10h-23.1l-11.5,20h-23.1h-23.1l5.8,10l5.8,10h-23.1l11.5,20h-11.5H1963h-23.1h-23.1h-11.5h-11.6l-5.8-10
		l-5.8-10l-11.6-20l-11.5-20l-5.8-10l-5.8-10H1836h-11.5l11.5-20h-23.1l5.8-10l5.8-10h-23.1h-23.1l-11.6,20l-11.5-20l-5.8,10
		l-5.8,10l-11.5-20l-11.6-20l-5.8,10l-5.8,10l-11.5-20l11.5-20l-11.5-20l-11.6,20l-5.8-10l-5.8-10h-11.5h-11.6l-5.8-10l-5.8-10
		l-11.5,20H1605l-11.5,20l-11.6-20l-5.8-10l-5.8-10l-11.5,20l11.5,20h-11.5h-11.5l-5.8-10l-5.8-10h-11.6h-11.5h-23.1l-11.5,20
		l11.5,20h-23.1l5.8,10l5.8,10h-23.1l11.5,20h-11.5h-11.5l-5.8,10l-5.8,10h-11.5h-11.6h-23.1h-23.1l5.8,10l5.8,10l-5.8,10l-5.8,10
		H1351h-11.6l11.6,20h-23.1h-11.6h-11.5l-5.8,10l-5.8,10l5.8,10l5.8,10h-23.1l11.5-20h-11.5h-11.5h-23.1H1224l-11.5-20h-23.1l5.8,10
		l5.8,10h-23.1h-23.1l-11.5-20l-11.5,20l-5.8-10l-5.8-10h-11.6H1097l-5.8-10l-5.8-10l-11.6-20l-11.6-20l-5.8-10l-5.8-10l5.8-10
		l5.8-10h-23.1l-11.5,20l-5.8,10l-5.8,10h-11.5H993l11.6-20h-23.1H970h-11.5h-23.1l-11.5-20h-23.1l-11.5-20H866l-11.6,20l-5.8,10
		l-5.8,10l-11.5-20l11.5-20h-11.5h-11.5h-23.1h-23.1l-11.6-20l-11.5-20l-5.8,10l-5.8,10l-11.5,20h-23.1l5.8,10l5.8,10h-23.1
		l-11.5,20h-23.1l-11.5,20h-23.1l11.5,20h-11.5H612l-5.8-10l-5.8-10h-11.5h-11.6h-23.1h-23.1l5.8-10l5.8-10h-23.1l0,0v20h0v-20
		l-11.5-20l-5.8,10l-5.8,10H485h-11.5l-5.8-10l-5.8-10l-11.5-20h-23.1l-11.5-20l-11.5,20l11.5,20l-11.5,20l11.5,20l-11.5,20l11.5,20
		l-11.5,20l11.5,20l-11.5,20l11.5,20l-11.5,20l11.5,20l-11.5,20l11.5,20l-11.5,20l11.5,20l-11.5,20l11.5,20l-11.5,20l11.5,20
		l-11.5,20l11.5,20h23.1h11.5h11.5H485h23.1h11.5v-20l17.3-10l-17.3,10h0l0,0v20h11.5h23.1h23.1h11.6h11.5h23.1h23.1h11.5h11.5h23.1
		h23.1h11.6H739h23.1h23.1h11.5h11.5h23.1h23.1H866h11.5h23.1h23.1h11.5h11.5H970H993h11.6h11.5h23.1h23.1h11.6h11.6h23.1h23.1h11.5
		h11.5h23.1h23.1h11.5h11.5h23.1h23.1h11.5h11.5h23.1h23.1h11.6h11.6h23.1h23.1h11.6h11.5h23.1h23.1h11.5h11.5h23.1h23.1h11.5h11.5
		h23.1h23.1h11.6h11.5h23.1h23.1h11.6h11.5h23.1h23.1h11.5h11.6h23.1h23.1h11.5h11.6h23.1h23.1h11.6h11.5h23.1h23.1h11.6h11.5h23.1
		h23.1h11.5h11.6h23.1h23.1h11.6h11.5h23.1h23.1h11.5h11.6h23.1h23.1h11.5h11.5h23.1h23.1h11.6h11.5h23.1h23.1h11.6h11.6h23.1h23.1
		h11.6h11.6h23.1h23.1h11.5h11.6h23.1h23.1h11.5v-20v-20V740z M536.9,570l-17.3,10h0l0,0v20h0v-20L536.9,570z M519.6,620l17.3-10
		L519.6,620L519.6,620L519.6,620l0,20h0V620z M536.9,530l-17.3,10h0l0,0v20h0v-20L536.9,530z M519.6,660l17.3-10L519.6,660
		L519.6,660L519.6,660l0,20h0V660z M536.9,490l-17.3,10h0l0,0v20h0v-20L536.9,490z M519.6,700l17.3-10L519.6,700L519.6,700
		L519.6,700l0,20h0V700z M536.9,450l-17.3,10h0l0,0v20h0v-20L536.9,450z M519.6,740l17.3-10L519.6,740L519.6,740L519.6,740l0,20h0
		V740z"/>
	<path class="st2" d="M2944.5,760v-20l0,0l0,0v0l0,0l-17.3,10l17.3-10l-17.3-10l17.3,10l0,0v0l0,0l0,0v-20v-20l0,0l0,0v0l0,0
		l-17.3,10l17.3-10l-17.3-10l17.3,10l0,0v0l0,0l0,0v-20v-20l0,0l0,0v0l0,0l-17.3,10l17.3-10l-17.3-10l17.3,10l0,0v0l0,0l0,0v-20v-20
		l0,0l0,0v0l0,0l-17.3,10l17.3-10l-17.3-10l17.3,10l0,0v0l0,0l0,0v-20v-20l0,0l0,0v0l0,0l-17.3,10l17.3-10l-17.3-10l17.3,10l0,0v0
		l0,0l0,0v-20v-20l0,0l0,0v0l0,0l-17.3,10l17.3-10l-17.3-10l17.3,10l0,0v0l0,0l0,0v-20v-20l0,0l0,0v0l0,0l-17.3,10l17.3-10l-17.3-10
		l17.3,10l0,0v0l0,0l0,0v-20v-20l0,0l0,0v0l0,0l-17.3,10l17.3-10l-17.3-10l17.3,10l0,0v0l0,0l0,0v-20v-20l0,0l0,0v0l0,0l-17.3,10
		l17.3-10l-17.3-10l17.3,10l0,0v0l0,0l0,0v-20v-20l0,0l0,0v0l0,0l-17.3,10l17.3-10l-17.3-10l-5.8,10l-11.5-20l-11.5,20h-23.1
		l-11.5,20l-5.8,10l-5.8,10l-11.6,20l-11.5,20l-5.8,10l-5.8,10l-11.6-20l-11.5,20h-23.1l-11.6-20l11.6-20h-23.1l-11.6,20l-11.5-20
		l-5.8-10l-5.8-10l0,0l-11.6-20h-23.1l-11.5,20h-23.1h-11.5h-11.6l-5.8,10l-5.8,10l-11.5-20v20v20l0,0l0,0v0l0,0l17.3-10l-17.3,10
		l17.3,10l-17.3-10l0,0v0l0,0l0,0v20v20l0,0l0,0v0l0,0l17.3-10l-17.3,10l17.3,10l-17.3-10l0,0v0l0,0l0,0v20v20l0,0l0,0v0l0,0
		l17.3-10l-17.3,10l17.3,10l-17.3-10l0,0v0l0,0l0,0v20v20l0,0l0,0v0l0,0l17.3-10l-17.3,10l17.3,10l-17.3-10l0,0v0l0,0l0,0v20v20l0,0
		l0,0v0l0,0l17.3-10l-17.3,10l17.3,10l-17.3-10l0,0v0l0,0l0,0v20v20l0,0l0,0v0l0,0l17.3-10l-17.3,10l17.3,10l-17.3-10l0,0v0l0,0l0,0
		v20v20l0,0l0,0v0l0,0l17.3-10l-17.3,10l17.3,10l-17.3-10l0,0v0l0,0l0,0v20v20l0,0l0,0v0l0,0l17.3-10l-17.3,10l17.3,10l-17.3-10l0,0
		v0l0,0l0,0v20v20l0,0l0,0v0l0,0l17.3-10l-17.3,10l17.3,10l-17.3-10l0,0v0l0,0l0,0v20h11.5h23.1h23.1h11.6h11.5h23.1h23.1h11.5h11.6
		h23.1h23.1h11.5h11.6h23.1h23.1h11.5h11.6h23.1h23.1h11.5v-20l0,0l0,0v0l0,0l-17.3,10l17.3-10l-17.3-10l17.3,10l0,0v0l0,0l0,0V760z
		 M2713.6,660L2713.6,660l5.8-10L2713.6,660l5.8,10L2713.6,660L2713.6,660z M2713.6,620L2713.6,620l5.8-10L2713.6,620l5.8,10
		L2713.6,620L2713.6,620z M2713.6,580L2713.6,580l5.8-10L2713.6,580l5.8,10L2713.6,580L2713.6,580z M2713.6,700L2713.6,700l5.8-10
		L2713.6,700l5.8,10L2713.6,700L2713.6,700z M2713.6,540l5.8,10L2713.6,540L2713.6,540L2713.6,540l5.8-10L2713.6,540z M2713.6,740
		L2713.6,740l5.8-10L2713.6,740l5.8,10L2713.6,740L2713.6,740z M2713.6,500l5.8,10L2713.6,500L2713.6,500L2713.6,500l5.8-10
		L2713.6,500z M2713.6,460l5.8,10L2713.6,460L2713.6,460L2713.6,460l5.8-10L2713.6,460z M2713.5,780L2713.5,780L2713.5,780l5.8-10
		L2713.5,780l5.8,10L2713.5,780z"/>
	<polygon class="st2" points="3290.9,760 3290.9,740 3290.9,740 3290.9,740 3290.9,720 3290.9,700 3290.9,700 3290.9,700 
		3290.9,680 3290.9,660 3290.9,660 3290.9,660 3290.9,640 3290.9,620 3290.9,620 3290.9,620 3290.9,600 3290.9,580 3290.9,580 
		3290.9,580 3290.9,560 3290.9,540 3290.9,540 3290.9,540 3290.9,520 3290.9,500 3290.9,500 3290.9,500 3290.9,480 3290.9,460 
		3290.9,460 3290.9,460 3290.9,440 3290.9,420 3290.9,420 3290.9,420 3290.9,400 3290.9,380 3290.9,380 3290.9,380 3290.9,360 
		3290.9,340 3290.9,340 3290.9,340 3290.9,320 3290.9,300 3290.9,300 3290.9,300 3290.9,280 3290.9,260 3279.4,280 3256.2,280 
		3244.7,300 3238.9,290 3233.2,280 3221.6,300 3198.5,300 3204.3,310 3210.1,320 3187,320 3175.4,340 3152.3,340 3129.2,340 
		3117.7,320 3106.1,300 3100.4,290 3094.6,280 3083.1,280 3071.5,280 3048.4,280 3060,260 3048.4,260 3036.9,260 3031.1,270 
		3025.3,280 3013.8,300 2990.7,300 2979.1,320 2967.6,300 2961.8,310 2956,320 2944.5,340 2944.5,360 2944.5,380 2944.5,400 
		2944.5,420 2944.5,440 2944.5,460 2944.5,480 2944.5,500 2944.5,520 2944.5,540 2944.5,560 2944.5,580 2944.5,600 2944.5,620 
		2944.5,640 2944.5,660 2944.5,680 2944.5,700 2944.5,720 2944.5,740 2944.5,760 2944.5,780 2944.5,800 2956,800 2979.1,800 
		3002.2,800 3013.8,800 3025.3,800 3048.4,800 3071.5,800 3083.1,800 3094.6,800 3117.7,800 3140.8,800 3152.3,800 3163.9,800 
		3187,800 3210.1,800 3221.6,800 3233.2,800 3256.2,800 3279.4,800 3290.9,800 3290.9,780 3290.9,780 3290.9,780 	"/>
	<polygon class="st2" points="3637.3,760 3637.3,740 3637.3,740 3637.3,740 3637.3,740 3637.3,740 3620,750 3637.3,740 3620,730 
		3637.3,740 3637.3,740 3637.3,740 3637.3,740 3637.3,740 3637.3,720 3637.3,700 3637.3,700 3637.3,700 3637.3,700 3637.3,700 
		3620,710 3637.3,700 3620,690 3637.3,700 3637.3,700 3637.3,700 3637.3,700 3637.3,700 3637.3,680 3637.3,660 3637.3,660 
		3637.3,660 3637.3,660 3637.3,660 3620,670 3637.3,660 3620,650 3637.3,660 3637.3,660 3637.3,660 3637.3,660 3637.3,660 
		3637.3,640 3637.3,620 3637.3,620 3637.3,620 3637.3,620 3637.3,620 3620,630 3637.3,620 3620,610 3637.3,620 3637.3,620 
		3637.3,620 3637.3,620 3637.3,620 3637.3,600 3637.3,580 3637.3,580 3637.3,580 3637.3,580 3637.3,580 3620,590 3637.3,580 
		3620,570 3637.3,580 3637.3,580 3637.3,580 3637.3,580 3637.3,580 3637.3,560 3637.3,540 3637.3,540 3637.3,540 3637.3,540 
		3637.3,540 3620,550 3637.3,540 3620,530 3637.3,540 3637.3,540 3637.3,540 3637.3,540 3637.3,540 3637.3,520 3637.3,500 
		3637.3,500 3637.3,500 3637.3,500 3637.3,500 3620,510 3637.3,500 3620,490 3637.3,500 3637.3,500 3637.3,500 3637.3,500 
		3637.3,500 3637.3,480 3637.3,460 3637.3,460 3637.3,460 3637.3,460 3637.3,460 3620,470 3637.3,460 3620,450 3637.3,460 
		3637.3,460 3637.3,460 3637.3,460 3637.3,460 3637.3,440 3637.3,420 3637.3,420 3637.3,420 3637.3,420 3637.3,420 3620,430 
		3637.3,420 3620,410 3637.3,420 3637.3,420 3637.3,420 3637.3,420 3637.3,420 3637.3,400 3637.3,380 3637.3,380 3637.3,380 
		3637.3,380 3637.3,380 3620,390 3637.3,380 3620,370 3637.3,380 3637.3,380 3637.3,380 3637.3,380 3637.3,380 3637.3,360 
		3637.3,340 3625.8,360 3620,350 3614.2,340 3637.3,340 3620,330 3637.3,340 3637.3,340 3637.3,340 3637.3,340 3637.3,340 
		3637.3,320 3637.3,300 3625.8,320 3620,310 3614.2,300 3602.7,320 3591.1,340 3585.3,330 3579.6,320 3568,320 3556.5,320 3568,340 
		3544.9,340 3550.7,330 3556.5,320 3533.4,320 3544.9,300 3533.4,300 3521.8,300 3533.4,280 3521.8,260 3516.1,250 3510.3,240 
		3498.7,240 3487.2,240 3481.4,250 3475.6,260 3464.1,240 3441,240 3429.5,240 3417.9,240 3412.1,230 3406.4,220 3406.4,220 
		3394.8,220 3383.3,220 3377.5,230 3371.7,240 3360.2,240 3348.6,240 3325.5,240 3314,260 3290.9,260 3290.9,280 3290.9,300 
		3290.9,320 3290.9,340 3290.9,360 3290.9,380 3290.9,400 3290.9,420 3290.9,440 3290.9,460 3290.9,480 3290.9,500 3290.9,520 
		3290.9,540 3290.9,560 3290.9,580 3290.9,600 3290.9,620 3290.9,640 3290.9,660 3290.9,680 3290.9,700 3290.9,720 3290.9,740 
		3290.9,760 3290.9,780 3290.9,800 3302.4,800 3325.5,800 3348.6,800 3360.2,800 3371.7,800 3394.8,800 3417.9,800 3429.5,800 
		3441,800 3464.1,800 3487.2,800 3498.7,800 3510.3,800 3533.4,800 3556.5,800 3568,800 3579.6,800 3602.7,800 3625.8,800 
		3637.3,800 3637.3,780 3637.3,780 3637.3,780 3637.3,780 3637.3,780 3620,790 3637.3,780 3620,770 3637.3,780 3637.3,780 
		3637.3,780 3637.3,780 3637.3,780 	"/>
	<path class="st2" d="M5022.9,760v-20l0,0l0,0v0l0,0l-17.3,10l17.3-10l-17.3-10l17.3,10l0,0v0l0,0l0,0v-20v-20l0,0l0,0v0l0,0
		l-17.3,10l17.3-10l-17.3-10l17.3,10l0,0v0l0,0l0,0v-20v-20l0,0l0,0v0l0,0l-17.3,10l17.3-10l-17.3-10l17.3,10l0,0v0l0,0l0,0v-20v-20
		l0,0l0,0v0l0,0l-17.3,10l17.3-10l-17.3-10l17.3,10l0,0v0l0,0l0,0v-20v-20l0,0l0,0v0l0,0l-17.3,10l17.3-10l-17.3-10l17.3,10l0,0v0
		l0,0l0,0v-20v-20l0,0l0,0v0l0,0l-17.3,10l17.3-10l-17.3-10l17.3,10l0,0v0l0,0l0,0v-20v-20l0,0l0,0v0l0,0l-17.3,10l17.3-10l-17.3-10
		l17.3,10l0,0v0l0,0l0,0v-20v-20l0,0l0,0v0l0,0l-17.3,10l17.3-10l-17.3-10l17.3,10l0,0v0l0,0l0,0v-20v-20l0,0l0,0v0l0,0l-17.3,10
		l17.3-10l-17.3-10l17.3,10l0,0v0l0,0l0,0v-20v-20l0,0l0,0v0l0,0l-17.3,10l17.3-10l-17.3-10l17.3,10l0,0v0l0,0l0,0v-20v-20l0,0l0,0
		v0l0,0l-17.3,10l17.3-10l-17.3-10l17.3,10l0,0v0l0,0l0,0v-20v-20l0,0l0,0v0l0,0l-17.3,10l17.3-10l-17.3-10l17.3,10l0,0v0l0,0l0,0
		v-20h-11.5h-23.1l11.6,20h-11.6h-11.5h-23.1l-11.5,20l-5.8,10l-5.8,10l-11.5-20h-23.1l-11.6,20l-11.5-20l-5.8,10l-5.8,10l5.8,10
		l5.8,10h-23.1h-23.1l-11.5,20H4792l5.8,10l5.8,10h-23.1l-11.5,20l-5.8-10l-5.8-10h-11.5h-11.5l-5.8-10l-5.8-10h-11.5h-11.6l-5.8,10
		l-5.8,10l-11.5-20h-23.1l-11.5,20h-23.1l-11.5-20l-11.5-20h-23.1l-11.5,20H4538l-11.6,20l-5.8,10l-5.8,10h-11.5h-11.6l-5.8,10
		l-5.8,10h-11.6h-11.5l11.5,20h-23.1l-11.6,20H4411l-11.5-20h-23.1l5.8,10l5.8,10h-23.1h-23.1l-11.5-20H4307h-11.5h-11.5l-5.8,10
		l-5.8,10h-11.6h-11.5l-5.8,10l-5.8,10l-11.5-20h-23.1h-11.5H4180l-5.8-10l-5.8-10l5.8-10l5.8-10h-23.1h-23.1h-11.6h-11.5l11.5-20
		h-23.1l5.8-10l5.8-10l-5.8-10l-5.8-10l-11.6-20l-11.5-20l-5.8-10l-5.8-10H4053h-11.6h-23.1l-11.6-20l-5.8,10l-5.8,10h-11.5h-11.6
		l-5.8,10l17.3,10l-17.3,10l5.8,10h-23.1l11.6,20h-11.6h-11.5l11.5-20l-11.5-20l-5.8,10l-5.8,10l-11.6-20h-23.1l5.8-10l5.8-10
		l-5.8-10l-5.8-10l-11.6-20h-23.1l-11.6,20l-11.5-20l-5.8,10l-5.8,10l-11.6-20h-23.1h-11.5h-11.6l-5.8,10l-5.8,10l-11.5-20l-11.6-20
		h-23.1h-23.1l5.8,10l5.8,10h-23.1l-11.6,20h-23.1v20v20v20v20v20v20v20v20v20v20v20v20v20v20v20v20v20v20v20v20v20v20v20v20v20
		h11.5h23.1h23.1h11.6h11.5h23.1h23.1h11.6h11.5h23.1h23.1h11.5h11.6h23.1h23.1h11.5h11.6h23.1h23.1h11.6h11.5h23.1h23.1h11.6h11.5
		h23.1h23.1h11.5h11.6h23.1h23.1h11.6h11.5h23.1h23.1h11.5h11.6h23.1h23.1h11.5h11.5h23.1h23.1h11.6h11.5h23.1h23.1h11.5h11.6h23.1
		h23.1h11.6h11.5h23.1h23.1h11.5h11.5h23.1h23.1h11.5h11.5h23.1h23.1h11.5h11.5h23.1h23.1h11.6h11.5h23.1h23.1h11.5h11.6h23.1h23.1
		h11.5h11.5h23.1h23.1h11.5v-20l0,0l0,0v0l0,0l-17.3,10l17.3-10l-17.3-10l17.3,10l0,0v0l0,0l0,0V760z M3868.2,340L3868.2,340
		l-5.8,10L3868.2,340l-5.8-10L3868.2,340L3868.2,340z M4792,620L4792,620l5.8-10L4792,620l5.8,10L4792,620L4792,620z M4792,580
		l5.8,10L4792,580L4792,580L4792,580l5.8-10L4792,580z M3983.7,580l-17.3-10L3983.7,580l-17.3,10L3983.7,580z M3868.2,580l-5.8-10
		L3868.2,580L3868.2,580L3868.2,580l-5.8,10L3868.2,580z M3868.2,540L3868.2,540l-5.8,10L3868.2,540l-5.8-10L3868.2,540L3868.2,540z
		 M3868.2,620l-5.8-10L3868.2,620L3868.2,620L3868.2,620l-5.8,10L3868.2,620z M3983.7,620l-17.3-10L3983.7,620l-17.3,10L3983.7,620z
		 M3966.4,550l17.3-10l-17.3-10l17.3,10L3966.4,550z M3868.2,500L3868.2,500l-5.8,10L3868.2,500l-5.8-10L3868.2,500L3868.2,500z
		 M3868.2,660l-5.8-10L3868.2,660L3868.2,660L3868.2,660l-5.8,10L3868.2,660z M3983.7,660l-17.3-10L3983.7,660l-17.3,10L3983.7,660z
		 M4792,660L4792,660l5.8-10L4792,660l5.8,10L4792,660L4792,660z M4792,540l5.8,10L4792,540L4792,540L4792,540l5.8-10L4792,540z
		 M3966.4,510l17.3-10l-17.3-10l17.3,10L3966.4,510z M3868.2,460L3868.2,460l-5.8,10L3868.2,460l-5.8-10L3868.2,460L3868.2,460z
		 M3868.2,700l-5.8-10L3868.2,700L3868.2,700L3868.2,700l-5.8,10L3868.2,700z M3983.7,700l-17.3-10L3983.7,700l-17.3,10L3983.7,700z
		 M4792,700L4792,700l5.8-10L4792,700l5.8,10L4792,700L4792,700z M4792,500l5.8,10L4792,500L4792,500L4792,500l5.8-10L4792,500z
		 M3966.4,470l17.3-10l-17.3-10l17.3,10L3966.4,470z M3868.2,420L3868.2,420l-5.8,10L3868.2,420l-5.8-10L3868.2,420L3868.2,420z
		 M3868.2,740l-5.8-10L3868.2,740L3868.2,740L3868.2,740l-5.8,10L3868.2,740z M3983.7,740l-17.3-10L3983.7,740l-17.3,10L3983.7,740z
		 M4792,740L4792,740l5.8-10L4792,740l5.8,10L4792,740L4792,740z M4792,460l5.8,10L4792,460L4792,460L4792,460l5.8-10L4792,460z
		 M3983.7,420l-17.3,10L3983.7,420l-17.3-10L3983.7,420z M3868.2,380L3868.2,380l-5.8,10L3868.2,380l-5.8-10L3868.2,380L3868.2,380z
		 M4797.8,410l-5.8,10l5.8,10l-5.8-10l0,0l0,0L4797.8,410z M3983.7,380l-17.3-10L3983.7,380l-17.3,10L3983.7,380z M3868.2,300
		l-5.8-10L3868.2,300L3868.2,300L3868.2,300l-5.8,10L3868.2,300z M3862.5,790l5.8-10l-5.8-10l5.8,10l0,0l0,0L3862.5,790z
		 M3966.4,790l17.3-10l-17.3-10l17.3,10L3966.4,790z M4792,780L4792,780L4792,780l5.8-10L4792,780l5.8,10L4792,780z"/>
	<path class="st2" d="M5819.7,760l11.5-20l-11.5-20l11.5-20l-11.5-20l11.5-20l-11.5-20l11.5-20l-11.5-20l11.5-20l-11.5-20l11.5-20
		l-11.5-20l11.5-20l-11.5-20l11.5-20l-11.5-20l-11.5,20H5785l-11.5-20l-5.8,10l-5.8,10h-11.5h-11.6l11.6,20h-23.1l5.8-10l-17.3-10
		l0,0h-23.1l-11.5,20H5658l-11.5,20l-11.5-20h-23.1l11.6-20l-11.6-20l-11.5-20h-23.1l-11.6-20l-5.8,10l-5.8,10l-11.5-20l-11.6,20
		l-5.8,10l-5.8,10l-11.6-20h-23.1h-11.5h-11.5h-23.1h-23.1H5404h-11.5l11.5,20l-11.5,20h-23.1h0h-23.1l5.8,10l5.8,10l-5.8,10
		l-5.8,10l5.8,10l5.8,10l-5.8,10l-5.8,10l5.8,10l5.8,10l-5.8,10l-5.8,10l5.8,10l5.8,10l-5.8,10l-5.8,10l5.8,10l5.8,10l-5.8,10
		l-5.8,10l5.8,10l5.8,10l-5.8,10l-5.8,10l5.8,10l5.8,10l-5.8,10l-5.8,10l5.8,10l5.8,10l-5.8,10l-5.8,10l5.8,10l5.8,10h11.5v-20l0,0
		l0,0v20h11.5h23.1h23.1h11.6h11.5h23.1h23.1h11.5h11.6h23.1h23.1h11.6h11.5h23.1h23.1h11.5h11.5h23.1h23.1h11.5h11.5h23.1h23.1
		h11.5h11.5h23.1l11.5-20L5819.7,760z M5715.8,580l17.3,10L5715.8,580L5715.8,580L5715.8,580l17.3-10L5715.8,580z M5715.8,620
		l17.3,10L5715.8,620L5715.8,620L5715.8,620l17.3-10L5715.8,620z M5715.8,660l17.3,10L5715.8,660L5715.8,660L5715.8,660l17.3-10
		L5715.8,660z M5715.8,700L5715.8,700l17.3-10L5715.8,700l17.3,10L5715.8,700L5715.8,700z M5715.8,540l17.3,10L5715.8,540
		L5715.8,540L5715.8,540l17.3-10L5715.8,540z M5715.8,740L5715.8,740l17.3-10L5715.8,740l17.3,10L5715.8,740L5715.8,740z
		 M5733.1,490l-17.3,10l17.3,10l-17.3-10l0,0l0,0L5733.1,490z M5369.4,480v-20l0,0l0,0L5369.4,480l0,20l0,0l0,0V480z M5369.4,520
		v-20l0,0l0,0L5369.4,520l0,20l0,0l0,0V520z M5369.4,560v-20l0,0l0,0L5369.4,560l0,20l0,0l0,0V560z M5369.4,600v-20l0,0l0,0
		L5369.4,600l0,20l0,0l0,0V600z M5369.4,640v-20l0,0l0,0L5369.4,640l0,20l0,0l0,0V640z M5369.4,680v-20l0,0l0,0L5369.4,680l0,20l0,0
		l0,0V680z M5369.4,720v-20l0,0l0,0L5369.4,720l0,20l0,0l0,0V720z M5369.4,760v-20l0,0l0,0L5369.4,760l0,20l0,0l0,0V760z
		 M5715.8,780L5715.8,780L5715.8,780l17.3-10L5715.8,780l17.3,10L5715.8,780z"/>
	<path class="st2" d="M404.2,780L404.2,780l11.5-20l-11.5-20l0,0l0,0l11.5-20l-11.5-20l0,0l0,0l11.5-20l-11.5-20l0,0l0,0l11.5-20
		l-11.5-20l0,0l0,0l11.5-20l-11.5-20l0,0l0,0l11.5-20l-11.5-20l0,0l0,0l11.5-20l-11.5-20l0,0l0,0l11.5-20l-11.5-20l0,0l0,0l11.5-20
		l-11.5-20l0,0l0,0l11.5-20l-11.5-20l0,0l0,0l11.5-20h-23.1l5.8-10l5.8-10H381l-11.5,20h-23.1l-11.6-20l-5.8,10l-5.8,10l-11.5-20
		h-23.1l-11.5,20H254l-11.5-20h-23.1h-11.5h-11.6l-5.8-10l-5.8-10l-11.5,20l0,0l0,0l-11.5-20h-23.1h-23.1l-11.6,20l-11.5,20l11.5,20
		l-11.5,20h11.5h11.6l5.8,10l5.8,10l-5.8,10l-5.8,10l5.8,10l5.8,10l-5.8,10l-5.8,10h-11.6H92.4l11.5,20l-11.5,20l11.5,20l-11.5,20
		l11.5,20l-11.5,20l11.5,20l-11.5,20l-5.8,10l-5.8,10l-11.5,20l-11.5,20L52,710l-5.8,10l5.8,10l5.8,10l11.5,20l11.5,20l5.8,10
		l5.8,10h11.5h11.6h23.1h23.1h11.5v-20l0,0v20h11.5h23.1h23.1h11.5H254h23.1h23.1h11.5h11.5h23.1h23.1H381h11.6h23.1L404.2,780
		L404.2,780z M173.2,760L173.2,760l0-20l0,0V760z M173.2,380L173.2,380l0,20h0V380z M173.2,720L173.2,720l0-20l0,0V720z M173.2,500
		L173.2,500l0,20h0V500z M173.2,420L173.2,420L173.2,420l11.5-20L173.2,420z M173.2,660L173.2,660l0,20h0V660z M173.2,540L173.2,540
		L173.2,540l11.5-20L173.2,540z M173.2,580L173.2,580L173.2,580l11.5-20L173.2,580z M173.2,620L173.2,620L173.2,620l11.5-20
		L173.2,620z M173.2,660L173.2,660L173.2,660l11.5-20L173.2,660z M173.2,700l11.5-20L173.2,700L173.2,700L173.2,700z M173.2,460
		L173.2,460L173.2,460l11.5-20L173.2,460z M173.2,500L173.2,500L173.2,500l11.5-20L173.2,500z M173.2,540L173.2,540l0,20h0V540z
		 M173.2,580L173.2,580l0,20h0V580z M173.2,620L173.2,620l0,20h0V620z M173.2,420L173.2,420l0,20h0V420z M173.2,460L173.2,460l0,20
		h0V460z M173.2,740l11.5-20L173.2,740L173.2,740L173.2,740z M173.2,380L173.2,380L173.2,380l11.5-20L173.2,380z M173.2,360
		L173.2,360l0-20l0,0V360z M173.2,780L173.2,780l11.5-20L173.2,780L173.2,780z"/>
	<path class="st2" d="M5346.3,780l5.8-10l5.8-10l-5.8-10l-5.8-10l5.8-10l5.8-10l-5.8-10l-5.8-10l5.8-10l5.8-10l-5.8-10l-5.8-10
		l5.8-10l5.8-10l-5.8-10l-5.8-10l5.8-10l5.8-10l-5.8-10l-5.8-10l5.8-10l5.8-10l-5.8-10l-5.8-10l5.8-10l5.8-10l-5.8-10l-5.8-10
		l5.8-10l5.8-10l-5.8-10l-5.8-10l5.8-10l5.8-10h-23.1l-11.5,20h-23.1l-11.5-20l-5.8,10l-5.8,10h-11.5h-11.5l-5.8,10l5.8-10h0
		l-5.8-10l-5.8-10h-11.5h-11.5l11.5,20h-23.1l5.8-10l5.8-10l-5.8-10l-5.8-10l-11.6,20l-11.5,20l-5.8-10l-5.8-10l-11.6-20l11.6-20
		l-11.6-20l-11.5-20l-5.8,10l-5.8,10l-11.5-20l11.5-20h-11.5h-11.6l-5.8-10l-5.8-10l-11.5-20l-11.5-20h-23.1l-11.5,20l-5.8-10
		l-5.8-10H5023v20v20v20v20v20v20v20v20v20v20v20v20v20v20v20v20v20v20v20v20v20v20v20v20v20v20h11.5h23.1h23.1h11.5h11.5h23.1h23.1
		h11.5h11.6h23.1h23.1h11.5h11.5h23.1h23.1h11.5h11.6h23.1h23.1l-5.8-10L5346.3,780z M5248.1,750l5.8-10h0L5248.1,750z M5248.1,710
		l5.8-10h0L5248.1,710z M5248.1,590l5.8-10h0L5248.1,590z M5248.1,630l5.8-10h0L5248.1,630z M5248.1,670l5.8-10h0L5248.1,670z
		 M5248.1,550l5.8-10h0L5248.1,550z M5248.1,510l5.8-10h0L5248.1,510z M5150,400l-5.8,10l-5.8,10l-11.5-20H5150z M5248.1,790l5.8-10
		h0L5248.1,790z"/>
	<polygon class="st2" points="2927.2,370 2944.5,380 2944.5,380 2944.5,380 2944.5,380 2944.5,380 2944.5,360 2944.5,340 
		2944.5,340 2944.5,340 2944.5,340 2944.5,340 2927.2,350 2944.5,340 2921.4,340 2909.8,360 2932.9,360 	"/>
	<path class="st2" d="M6287.3,690l-5.8-10l-11.5-20l-11.5-20l-5.8,10l-5.8,10l-11.6-20h-23.1l-11.5,20l-11.6-20h-23.1l-11.6-20
		h-23.1l11.5-20h-11.5h-11.5l-5.8-10l-5.8-10l5.8-10l5.8-10l-5.8-10l-5.8-10h-11.5h-11.5h-23.1h0h-23.1l5.8,10l5.8,10h-23.1l11.6-20
		l-11.6-20l-11.5,20l-5.8-10l-5.8-10l-11.5,20h-23.1l5.8-10l5.8-10h-23.1l-11.5-20l-5.8,10l-5.8,10l-11.6,20l-11.5-20l-5.8,10
		l-5.8,10l-11.5-20l11.5-20H5889h-11.6h-23.1l11.5-20h-11.5h-11.6l11.6-20h-23.1h0l0,0l-11.5,20l11.5,20l0,0l0,0l-11.5,20l11.5,20
		l0,0l0,0l-11.5,20l11.5,20l0,0l0,0l-11.5,20l11.5,20l0,0l0,0l-11.5,20l11.5,20l0,0l0,0l-11.5,20l11.5,20l0,0l0,0l-11.5,20l11.5,20
		l0,0l0,0l-11.5,20l11.5,20l0,0l0,0l-11.5,20h23.1h11.6h11.5h23.1h23.1h11.5h11.6h23.1h23.1h11.5h11.5h23.1h23.1h11.5v-20l0,0l0,0
		v20h11.5h23.1h23.1h11.5h11.5h23.1h23.1h11.6h11.5h23.1h23.1h11.5h11.5l-11.5-20h23.1l-5.8-10l-5.8-10l5.8-10l5.8-10l-5.8-10
		l-5.8-10l-11.5-20h23.1L6287.3,690z M5940.9,750l5.8-10h0L5940.9,750z M6062.2,620L6062.2,620L6062.2,620l0-20v-20l0,0l0,0v20V620z
		 M6062.2,780L6062.2,780L6062.2,780l0-20v-20l0,0l0,0v20V780z M6062.2,660L6062.2,660L6062.2,660l0-20v-20l0,0l0,0v20V660z
		 M5940.9,710l5.8-10h0L5940.9,710z M6062.2,740L6062.2,740L6062.2,740l0-20v-20l0,0l0,0v20V740z M5940.9,670l5.8-10h0L5940.9,670z
		 M6062.2,700L6062.2,700L6062.2,700l0-20v-20l0,0l0,0v20V700z M5940.9,630l5.8-10h0L5940.9,630z M5940.9,590l5.8-10h0L5940.9,590z
		 M6062.2,560v-20l0,0l0,0L6062.2,560l0,20l0,0l0,0V560z M5946.7,540L5946.7,540l-5.8,10L5946.7,540z M5940.9,790l5.8-10h0
		L5940.9,790z"/>
	<polygon class="st2" points="3233.2,80 3221.6,80 3210.1,80 3221.6,100 	"/>
	<polygon class="st2" points="3377.5,110 3383.3,100 3360.2,100 3371.7,120 	"/>
	<polygon class="st2" points="3660.4,100 3654.6,110 3648.9,120 3671.9,120 	"/>
	<polygon class="st2" points="1709,120 1732.1,120 1720.5,100 1697.4,100 1685.9,120 1697.4,120 	"/>
	<polygon class="st2" points="3175.4,140 3187,120 3198.5,100 3187,100 3175.4,100 3169.6,110 3163.9,120 3169.6,130 	"/>
	<polygon class="st2" points="3446.8,130 3441,120 3429.5,140 3452.6,140 	"/>
	<polygon class="st2" points="4803.5,120 4797.8,130 4792,140 4815.1,140 	"/>
	<polygon class="st2" points="4029.9,140 4018.4,120 4006.8,140 4018.4,140 	"/>
	<polygon class="st2" points="3337.1,140 3325.5,140 3314,140 3325.5,160 	"/>
	<polygon class="st2" points="3729.7,140 3723.9,150 3718.1,160 3741.2,160 	"/>
	<polygon class="st2" points="5323.2,140 5317.4,130 5311.6,120 5300.1,140 5311.6,160 5317.4,150 	"/>
	<polygon class="st2" points="1501.1,160 1524.2,160 1535.8,140 1524.2,140 1512.7,140 1489.6,140 1478,160 1489.6,160 	"/>
	<polygon class="st2" points="5311.6,160 5300.1,160 5288.5,160 5282.8,170 5277,180 5300.1,180 	"/>
	<polygon class="st2" points="1812.9,180 1801.3,160 1789.8,180 1801.3,180 	"/>
	<polygon class="st2" points="3614.2,180 3602.7,160 3591.1,180 3602.7,180 	"/>
	<polygon class="st2" points="1893.7,200 1887.9,190 1882.2,180 1870.6,180 1859.1,180 1853.3,190 1847.5,200 1870.6,200 	"/>
	<polygon class="st2" points="2297.9,180 2286.3,180 2274.8,180 2286.3,200 	"/>
	<polygon class="st2" points="3602.7,200 3591.1,180 3568,180 3579.6,200 	"/>
	<polygon class="st2" points="6016,180 6010.2,190 6004.4,200 6027.5,200 	"/>
	<polygon class="st2" points="4399.4,200 4411,200 4399.4,180 4376.3,180 4364.8,200 4387.9,200 	"/>
	<polygon class="st2" points="3931.8,210 3926,200 3914.4,220 3937.5,220 	"/>
	<polygon class="st2" points="4693.9,210 4688.1,200 4676.5,220 4699.6,220 	"/>
	<polygon class="st2" points="4895.9,200 4884.4,200 4872.8,200 4884.4,220 	"/>
	<polygon class="st2" points="5184.6,220 5196.1,200 5173.1,200 5178.8,210 	"/>
	<polygon class="st2" points="1131.6,240 1143.2,220 1120.1,220 1125.8,230 	"/>
	<polygon class="st2" points="1437.6,230 1443.4,220 1420.3,220 1431.8,240 	"/>
	<polygon class="st2" points="2442.2,230 2436.4,220 2424.9,240 2448,240 	"/>
	<polygon class="st2" points="2996.4,230 2990.7,220 2979.1,240 3002.2,240 	"/>
	<polygon class="st2" points="4168.5,220 4156.9,200 4145.4,220 4156.9,240 	"/>
	<polygon class="st2" points="4226.2,240 4237.8,220 4226.2,200 4214.7,220 4191.6,220 4203.1,240 	"/>
	<polygon class="st2" points="4526.4,240 4538,220 4514.9,220 4520.6,230 	"/>
	<polygon class="st2" points="5022.9,220 4999.9,220 5005.6,230 	"/>
	<polygon class="st2" points="5023,220 5005.6,230 5011.4,240 	"/>
	<polygon class="st2" points="5623.4,220 5611.8,220 5600.3,220 5611.8,240 	"/>
	<polygon class="st2" points="739,240 727.5,220 715.9,240 727.5,240 	"/>
	<polygon class="st2" points="6281.6,240 6270,220 6258.5,240 6270,240 	"/>
	<polygon class="st2" points="1235.5,260 1247.1,240 1224,240 1212.4,240 1200.9,240 1212.4,260 	"/>
	<polygon class="st2" points="3279.4,240 3290.9,260 3290.9,240 	"/>
	<polygon class="st2" points="3290.9,240 3290.9,260 3302.4,240 	"/>
	<polygon class="st2" points="4734.3,240 4728.5,250 4722.7,260 4745.8,260 	"/>
	<polygon class="st2" points="1021.9,270 1027.7,260 1004.6,260 1016.1,280 	"/>
	<polygon class="st2" points="2759.7,260 2754,270 2748.2,280 2771.3,280 	"/>
	<polygon class="st2" points="3175.4,260 3187,280 3198.5,260 3187,260 	"/>
	<polygon class="st2" points="3602.7,280 3625.8,280 3620,270 3614.2,260 	"/>
	<polygon class="st2" points="3799,260 3793.2,250 3787.4,240 3775.9,260 3787.4,280 3793.2,270 	"/>
	<polygon class="st2" points="4035.7,270 4041.4,280 4053,260 4029.9,260 	"/>
	<polygon class="st2" points="4307,260 4295.5,260 4283.9,260 4295.5,280 	"/>
	<polygon class="st2" points="5046,260 5040.3,270 5034.5,280 5057.6,280 	"/>
	<polygon class="st2" points="5317.4,270 5311.6,280 5317.4,290 5323.2,300 5334.7,280 5323.2,260 	"/>
	<polygon class="st2" points="2754,290 2748.2,280 2736.6,300 2759.7,300 	"/>
	<polygon class="st2" points="3140.8,280 3135,290 3129.2,300 3152.3,300 	"/>
	<polygon class="st2" points="3585.3,290 3579.6,280 3568,300 3591.1,300 	"/>
	<polygon class="st2" points="842.9,300 831.4,300 819.8,300 814.1,310 808.3,320 831.4,320 	"/>
	<polygon class="st2" points="2857.9,310 2852.1,300 2840.6,320 2863.7,320 	"/>
	<polygon class="st2" points="4659.2,310 4653.4,300 4641.9,320 4665,320 	"/>
	<polygon class="st2" points="5490.6,310 5484.8,300 5473.3,320 5496.4,320 	"/>
	<polygon class="st2" points="311.8,320 300.2,320 311.8,340 323.3,320 	"/>
	<polygon class="st2" points="1501.1,320 1506.9,330 1512.7,340 1524.2,320 	"/>
	<polygon class="st2" points="2066.9,340 2078.5,320 2055.4,320 2061.1,330 	"/>
	<polygon class="st2" points="2095.8,330 2101.6,320 2078.5,320 2090,340 	"/>
	<polygon class="st2" points="2471.1,320 2476.8,330 2482.6,340 2494.1,320 	"/>
	<polygon class="st2" points="2754,330 2759.7,340 2771.3,320 2748.2,320 	"/>
	<polygon class="st2" points="3966.4,330 3960.6,340 3966.4,350 3983.7,340 	"/>
	<polygon class="st2" points="4330.1,340 4318.6,320 4312.8,330 4307,340 	"/>
	<polygon class="st2" points="4468.7,320 4457.1,320 4468.7,340 4480.2,320 	"/>
	<polygon class="st2" points="5392.5,340 5404,320 5392.5,300 5386.7,310 5380.9,320 5386.7,330 	"/>
	<polygon class="st2" points="265.6,340 277.1,340 288.7,340 277.1,320 	"/>
	<polygon class="st2" points="1605,340 1593.5,320 1581.9,340 1593.5,340 	"/>
	<polygon class="st2" points="2159.3,340 2147.7,320 2136.2,340 2147.7,340 	"/>
	<polygon class="st2" points="4584.2,340 4572.6,320 4561.1,340 4572.6,340 	"/>
	<polygon class="st2" points="438.8,360 450.3,360 461.9,360 450.3,340 427.2,340 433,350 	"/>
	<polygon class="st2" points="710.1,350 704.4,340 692.8,360 715.9,360 	"/>
	<polygon class="st2" points="2130.4,350 2136.2,340 2113.1,340 2124.6,360 	"/>
	<polygon class="st2" points="4174.2,350 4180,360 4191.6,340 4168.5,340 	"/>
	<polygon class="st2" points="4411,360 4434,360 4445.6,340 4434,340 4422.5,340 4399.4,340 	"/>
	<polygon class="st2" points="4457.1,360 4468.7,340 4445.6,340 4451.4,350 	"/>
	<polygon class="st2" points="4653.4,340 4641.9,360 4665,360 4659.2,350 	"/>
	<polygon class="st2" points="6119.9,360 6131.5,340 6108.4,340 6114.1,350 	"/>
	<polygon class="st2" points="5796.6,360 5785,340 5773.5,360 5785,360 	"/>
	<polygon class="st2" points="1224,360 1212.4,360 1200.9,360 1212.4,380 	"/>
	<polygon class="st2" points="1235.5,380 1247.1,360 1224,360 1229.8,370 	"/>
	<polygon class="st2" points="2719.3,370 2725.1,360 2702,360 2713.5,380 	"/>
	<polygon class="st2" points="2857.9,370 2852.1,380 2875.2,380 2863.7,360 	"/>
	<polygon class="st2" points="4676.5,360 4665,360 4676.5,380 4688.1,360 	"/>
	<polygon class="st2" points="1120.1,380 1108.5,380 1097,380 1108.5,400 	"/>
	<polygon class="st2" points="2078.5,380 2066.9,380 2061.1,390 2055.4,400 2078.5,400 2090,380 	"/>
	<polygon class="st2" points="2546.1,390 2551.9,380 2546.1,370 2540.3,360 2528.8,380 2540.3,400 	"/>
	<polygon class="st2" points="5889,400 5877.4,380 5854.3,380 5865.9,400 	"/>
	<polygon class="st2" points="946.8,400 935.3,380 923.8,400 935.3,400 	"/>
	<polygon class="st2" points="6004.4,400 6010.2,390 6016,380 5992.9,380 5981.4,400 5992.9,400 	"/>
	<polygon class="st2" points="6016,420 6027.5,400 6004.4,400 6010.2,410 	"/>
	<polygon class="st2" points="5623.4,420 5611.8,400 5600.3,420 5611.8,420 	"/>
	<polygon class="st2" points="612,420 606.2,430 600.4,440 623.5,440 	"/>
	<polygon class="st2" points="1859.1,420 1853.3,430 1847.5,440 1870.6,440 	"/>
	<polygon class="st2" points="2823.2,430 2829,420 2805.9,420 2817.5,440 	"/>
	<polygon class="st2" points="5277,420 5282.8,430 5288.5,440 5300.1,420 	"/>
	<polygon class="st2" points="5369.4,420 5357.8,440 5369.4,440 	"/>
	<polygon class="st2" points="5369.4,420 5369.4,440 5380.9,440 	"/>
	<polygon class="st2" points="1097,460 1108.5,440 1085.4,440 1091.2,450 	"/>
	<polygon class="st2" points="5837,450 5842.8,440 5819.7,440 5831.2,460 	"/>
	<polygon class="st2" points="5865.9,440 5854.3,440 5842.8,440 5854.3,460 	"/>
	<polygon class="st2" points="6293.1,460 6287.3,450 6281.6,440 6270,440 6258.5,440 6270,460 	"/>
	<polygon class="st2" points="2020.7,460 2009.2,440 1997.6,460 2009.2,460 	"/>
	<polygon class="st2" points="1120.1,460 1108.5,460 1097,460 1108.5,480 	"/>
	<polygon class="st2" points="4364.8,460 4353.2,460 4364.8,480 4376.3,460 	"/>
	<polygon class="st2" points="5738.9,460 5715.8,460 5733.1,470 	"/>
	<polygon class="st2" points="1258.6,500 1264.4,490 1270.2,480 1247.1,480 	"/>
	<polygon class="st2" points="5981.4,480 5975.6,490 5969.8,500 5975.6,510 5981.4,520 5992.9,500 	"/>
	<polygon class="st2" points="6154.5,580 6148.8,570 6143,560 6131.5,580 	"/>
</g>
</svg>
